<?xml version="1.0" encoding="UTF-8" standalone="no"?>
<!-- Created with Inkscape (http://www.inkscape.org/) -->

<svg
   xmlns:dc="http://purl.org/dc/elements/1.1/"
   xmlns:cc="http://creativecommons.org/ns#"
   xmlns:rdf="http://www.w3.org/1999/02/22-rdf-syntax-ns#"
   xmlns:svg="http://www.w3.org/2000/svg"
   xmlns="http://www.w3.org/2000/svg"
   xmlns:sodipodi="http://sodipodi.sourceforge.net/DTD/sodipodi-0.dtd"
   xmlns:inkscape="http://www.inkscape.org/namespaces/inkscape"
   version="1.1"
   id="svg3886"
   width="2100"
   height="1500"
   viewBox="0 0 2100 1500"
   sodipodi:docname="archer.jpg.svg"
   inkscape:version="0.92.4 (5da689c313, 2019-01-14)">
  
  <style type="text/css">
    .st0(fill:none;stroke: #000000;stroke-width:3;stroke-miterlimit:3;}

  <path
     id="archer"
     style="fill:none;stroke:#000000;stroke-opacity:1;stroke-width:1.5;stroke-miterlimit:4;stroke-dasharray:none"
     d="m 605.46875,-1.5957031 c -0.71987,0.00256 -2.18915,1.68906348 -3.26758,3.75 -1.07925,2.0625 -3.52246,6.2249968 -5.42969,9.2500001 -3.49313,5.540342 -9.54451,16.893184 -17.85351,33.5 -2.47667,4.95 -4.83435,9.225 -5.24024,9.5 -1.0317,0.699007 -8.23753,17.135915 -11.83593,27 -1.10352,3.025 -3.81314,10.225 -6.02149,16 -6.43621,16.831223 -16.15352,44.707633 -19.17383,55.000003 -1.53328,5.225 -3.88229,12.875 -5.21875,17 -3.0755,9.49257 -5.38061,19.36474 -6.82421,29.22461 -0.6221,4.24897 -1.67608,8.17795 -2.3418,8.73047 -0.66573,0.55249 -2.97588,1.3702 -5.13281,1.81835 -3.26966,0.67933 -3.91993,1.2211 -3.91993,3.25782 0,2.15131 0.56504,2.52442 4.73633,3.12109 4.81117,0.68821 7.79825,2.63304 7.71875,5.02539 -0.0241,0.72679 -0.71611,3.12227 -1.53711,5.32227 -0.82101,2.2 -1.65014,5.40563 -1.84375,7.12304 -1.11413,9.88298 -1.86927,13.51907 -2.57031,12.38477 -0.46365,-0.75022 -0.92853,0.39353 -1.16406,2.86328 -0.21567,2.26156 -0.0423,4.22873 0.38476,4.37109 0.75883,0.25294 -1.14402,25.82748 -3.47851,46.75782 -0.64412,5.775 -1.02142,14.775 -0.83985,20 0.62459,17.97353 0.49463,39.52785 -0.32421,54.10156 -0.77471,13.78837 -0.71555,14.63132 1.04882,15.12695 9.63086,2.7054 67.51746,19.93939 83.36914,24.82031 6.875,2.11692 19.925,6.09568 29,8.8418 31.02375,9.38789 33.94419,10.38985 33.30274,11.42774 -0.39402,0.63753 0.0597,0.75546 1.20898,0.31445 1.13448,-0.43534 8.58134,1.39433 19.41407,4.76953 21.5271,6.70728 53.15892,16.25431 83.07421,25.07227 12.375,3.64772 25.875,7.68981 30,8.98242 4.125,1.2926 11.55,3.48217 16.5,4.86719 4.95,1.38503 15.075,4.37381 22.5,6.64062 7.425,2.26682 18.9,5.73173 25.5,7.70117 6.6,1.96945 16.05,4.83184 21,6.35938 4.95,1.52754 14.4,4.38663 21,6.35351 6.6,1.96687 20.325,6.10739 30.5,9.20118 10.175,3.09374 22.775,6.88867 28,8.43359 20.54828,6.07566 61.14412,18.27241 73.00002,21.93164 6.875,2.12191 15.65,4.79089 19.5,5.93164 3.85,1.14075 16.9,5.05056 29,8.68945 12.1,3.63889 28.075,8.39681 35.5,10.57227 7.425,2.17547 17.1,5.03823 21.5,6.36133 4.4,1.3231 15.2,4.49722 24,7.05468 8.8,2.55747 22.75,6.67593 31,9.15235 8.25,2.47641 19.275,5.77575 24.5,7.33203 5.225,1.55627 16.475,4.91802 25,7.4707 8.525,2.55268 22.25,6.63846 30.5,9.07813 8.25,2.43968 18.7635,5.5553 23.3633,6.92383 4.5998,1.36853 8.9592,2.48828 9.6894,2.48828 2.3966,0 2.6362,-2.00971 0.6192,-5.19532 l -1.9825,-3.13281 3.1543,-2.11719 c 2.2357,-1.50105 3.2455,-3.0422 3.4649,-5.2871 0.2695,-2.75745 -0.2164,-3.49979 -3.75,-5.73047 -4.6366,-2.92696 -4.8359,-3.52476 -2.0274,-6.06641 3.0324,-2.74428 7.9688,-11.86059 7.9688,-14.7168 0,-1.88711 -1.6567,-3.83013 -6.7422,-7.9082 -9.4083,-7.54451 -9.53,-9.86468 -1.0254,-19.55664 2.8971,-3.30165 7.9676,-9.29551 11.2676,-13.31836 10.6062,-12.92948 13.5646,-15.83858 17.3301,-17.04102 0.6435,-0.20549 1.2703,-0.43679 1.8671,-0.66992 0.9557,-1.28818 1.9473,-2.54844 2.9942,-3.76172 -0.1104,-4.76635 -1.8767,-15.9349 -4.8027,-29.86328 -0.9275,-4.41524 -0.8177,-5.08231 1.1894,-7.21875 1.2163,-1.29476 2.595,-2.11636 3.0645,-1.82617 0.4696,0.29019 3.3767,-1.63661 6.4589,-4.28125 3.0822,-2.64464 6.0516,-4.68118 6.5997,-4.52539 1.4474,0.41132 16.2788,-13.12253 14.8886,-13.58594 -0.6694,-0.22312 0.5587,-2.26281 2.8711,-4.77148 3.9077,-4.23931 4.4839,-5.40697 4.0899,-8.27735 -0.1136,-0.82739 0.2868,-1.05627 1.0351,-0.59375 0.7571,0.4679 0.9646,0.33721 0.5449,-0.34179 -0.7182,-1.16209 5.141,-15.21289 6.3438,-15.21289 1.0176,0 -0.3757,-8.07345 -1.8691,-10.83008 -1.0915,-2.01467 -0.9127,-3.03024 1.3203,-7.5 2.4744,-4.95309 7.7896,-11.66992 9.2343,-11.66992 0.3786,0 -0.2226,1.0125 -1.3379,2.25 -2.6321,2.91839 -3.6473,4.75182 -2.6328,4.73632 0.9494,-0.0145 5.7314,-7.03005 5.7774,-8.47656 0.044,-1.3873 9.9092,-7.13008 16.5117,-9.61328 3.0366,-1.14211 10.0215,-2.7349 15.5215,-3.53906 0.3292,-0.0481 0.6684,-0.10629 1.0039,-0.15625 3.7314,-1.1219 7.5776,-1.7776 11.5723,-1.88672 0.7256,-0.13337 1.4546,-0.26662 1.9238,-0.36523 8.1966,-1.7228 19,-2.34507 19,-1.09375 0,0.62898 1.4625,1.14739 3.25,1.15039 1.7875,0.003 4.445,0.63021 5.9062,1.39257 1.7691,0.92302 7.9497,1.57698 18.5,1.95899 8.8683,0.32111 18.4853,1.24334 21.8438,2.09375 3.3,0.83559 9.2359,2.21372 13.1914,3.0625 4.693,1.00705 8.9832,2.74825 12.3496,5.01367 2.8373,1.90936 6.0139,3.47266 7.0586,3.47266 1.0447,0 1.906,0.3375 1.916,0.75 0.01,0.4125 2.0336,2.99584 4.5,5.74218 2.4664,2.74634 4.5186,5.44634 4.5606,6 0.042,0.55366 0.2259,1.79532 0.4101,2.75782 0.2321,1.21227 -0.3288,1.77643 -1.8262,1.83593 -1.926,0.0766 -1.8831,0.16959 0.3965,0.86133 4.5478,1.37997 7.0173,3.12075 7.9649,5.61328 0.5101,1.34156 1.4052,2.43946 1.9883,2.43946 0.7434,0 0.7468,-0.59783 -0.01,-2 -0.8512,-1.59043 -0.7619,-2 0.4414,-2 1.562,0 10.9133,10.63356 15.1699,17.25 2.3865,3.7096 2.4847,3.75 9,3.75 7.5427,0 13.1134,2.14712 14.4082,5.55273 0.4696,1.23515 1.7734,2.88912 2.8965,3.67578 2.2322,1.56351 7.084,8.28692 7.084,9.81641 0,0.52557 0.4253,0.95508 0.9453,0.95508 0.52,0 1.6294,1.2375 2.4668,2.75 2.3626,4.26722 5.7791,11.4113 6.0449,12.64062 0.1319,0.60993 0.5109,1.78438 0.8418,2.60938 0.3309,0.825 1.0847,3.525 1.6738,6 0.5891,2.475 2.274,6.80784 3.7442,9.6289 l 2.6719,5.12891 -1.8594,6.14258 c -1.7772,5.86976 -1.7875,6.68794 -0.2227,18.37109 0.9007,6.72514 1.6389,15.25488 1.6289,18.95508 -0.01,4.02421 0.5888,7.88692 1.4805,9.61133 0.8199,1.58558 1.7934,6.89989 2.1641,11.81054 0.6458,8.55545 0.5177,9.38746 -3.0684,19.89063 -6.4515,18.89533 -9.9002,24.30557 -17.8379,27.98633 -5.0887,2.3597 -6.6981,5.09651 -7.6875,13.07422 -0.6323,5.09875 -0.4623,7.796 0.7207,11.45898 0.8522,2.63873 1.2599,5.9389 0.9063,7.34766 -0.8534,3.40026 -5.9194,9.06247 -9.3946,10.50195 -2.2135,0.91684 -3.353,2.66611 -5.5058,8.45508 -2.3457,6.30766 -3.3442,10.63672 -2.4551,10.63672 0.1418,0 4.1846,1.33623 8.9844,2.96875 4.7998,1.63253 15.5438,4.81016 23.875,7.0625 18.1877,4.91701 28.7516,8.3782 47.5039,15.56054 l 14.1211,5.40821 h 12.1406 c 14.541,0 44.9257,3.19987 58.1172,6.12109 5.225,1.15706 11.4496,2.49676 13.832,2.97656 9.2521,1.86325 18.2201,5.22903 31.9102,11.97461 15.0876,7.43419 36.2526,19.52443 36.2656,20.7168 0,0.39099 1.0168,1.19677 2.25,1.79102 22.1965,10.69574 45.501,30.38284 53.7422,45.40039 4.5515,8.29398 8.5776,13.06184 16.5488,19.5957 3.5742,2.92975 7.6209,6.66123 8.9922,8.29101 4.0556,4.81975 7.459,13.60439 7.459,19.25586 0,2.78696 0.6564,6.2628 1.459,7.72266 2.5421,4.62414 4.3891,17.03719 3.5449,23.82812 -1.7611,14.16577 -5.161,23.10202 -11.8731,31.2168 -1.9976,2.41492 -5.4385,6.76628 -7.6484,9.66992 -2.2099,2.90365 -7.9069,9.70295 -12.6582,15.10938 -7.7645,8.83504 -10.0889,10.73095 -22.9805,18.74023 -7.8888,4.90112 -19.2937,12.62669 -25.3437,17.16602 -10.4601,7.8482 -29.276,17.89111 -40.9297,21.84765 -6.468,2.19597 -31.2047,14.62898 -39.6914,19.94918 -4.5539,2.8548 -15.0169,7.6056 -26,11.8047 -40.5086,15.4874 -61.6228,22.9987 -68.332,24.3125 -5.1174,1.002 -11.1636,3.5209 -22.0762,9.1953 -18.4638,9.6008 -20.5552,11.1264 -37.7383,27.5352 -20.7023,19.7693 -38.0745,30.8457 -59.2324,37.7656 -5.5,1.7989 -15.6856,5.8842 -22.6348,9.0782 -6.9492,3.1938 -15.9492,6.8062 -20,8.0253 -4.8126,1.4485 -9.5292,3.8086 -13.6074,6.8125 -3.4326,2.5283 -9.027,6.2852 -12.4316,8.3477 -6.1624,3.7329 -6.2388,3.7459 -17.2579,3.7559 -11.6305,0.01 -10.8866,-0.1497 -43.0683,9.0136 -6.05,1.7227 -15.0327,4.4176 -19.961,5.9883 -5.9829,1.9065 -9.4722,2.555 -10.5,1.9531 -1.2891,-0.7548 -1.2227,-0.9066 0.4102,-0.9316 1.4463,-0.023 1.6599,-0.3206 0.8242,-1.1563 -1.7852,-1.7852 -6.0889,-0.1991 -6.4551,2.3789 -0.2857,2.0118 -1.4772,2.4834 -11.3183,4.4844 -10.9982,2.2364 -29.4133,4.5998 -45.5899,5.8496 l -8.5898,0.6621 -1.8828,3.627 c -1.0354,1.994 -2.7012,4.75 -3.7012,6.125 -15.0694,20.719 -16.7363,24.571 -16.7363,38.6641 0,8.313 0.2355,9.5492 2.1172,11.0957 1.1646,0.9571 3.7521,3.2499 5.75,5.0957 1.9979,1.8457 5.2078,4.1783 7.1328,5.1836 1.925,1.0054 5.3,3.4553 7.5,5.4433 2.2,1.988 5.575,4.8147 7.5,6.2832 18.5857,14.1784 50.5966,44.1232 59.8457,55.9824 3.1095,3.987 8.0447,10.287 10.9668,14 5.53,7.0268 7.9812,10.5349 22.2988,31.9004 9.4817,14.1493 22.8887,35.7948 22.8887,36.9551 0,0.4061 0.625,1.4501 1.3906,2.3184 2.5261,2.8649 16.3956,30.4073 19.9297,39.5781 1.9075,4.95 5.3566,14.7473 7.6641,21.7715 2.3658,7.2016 5.6018,14.811 7.4199,17.4492 2.9285,4.2496 4.9058,5.8097 12.5937,9.9277 1.3756,0.7362 4.2989,1.3246 6.4981,1.3086 l 4,-0.029 -7.0254,-3.2988 c -8.2302,-3.8632 -13.8672,-8.5125 -16.4121,-13.5352 -1.0018,-1.9771 -3.6322,-9.2187 -5.8438,-16.0937 -8.5007,-26.4264 -17.1395,-44.2795 -36.7773,-76 -13.8215,-22.3256 -36.7068,-54.835 -49.2774,-70 -10.2868,-12.4099 -39.9096,-39.5749 -64.664,-59.2988 -19.4416,-15.4908 -23.5022,-19.2928 -23.4922,-22.0059 0,-1.2072 0.4448,-5.9944 0.9785,-10.6367 l 0.9707,-8.4395 9.4707,-14.0605 c 5.2088,-7.7327 9.7413,-14.784 10.0742,-15.6699 0.4772,-1.2703 2.7614,-1.7522 10.8028,-2.2832 25.018,-1.6522 45.4442,-5.1712 67.1953,-11.5743 3.85,-1.1333 11.275,-3.1991 16.5,-4.5898 5.225,-1.3908 11.975,-3.3889 15,-4.4414 14.2606,-4.9618 24.8366,-6.9748 35.375,-6.7344 l 10.2734,0.2344 6.4258,-3.9063 c 3.5344,-2.1487 9.4065,-6.0862 13.0488,-8.75 3.6423,-2.6638 7.1437,-4.8437 7.7813,-4.8437 2.4369,0 13.3972,-4.1831 25.748,-9.8262 7.0669,-3.2288 17.3477,-7.3527 22.8477,-9.164 21.2735,-7.0057 37.8012,-17.5086 57.5,-36.543 16.938,-16.3667 21.0556,-19.3899 39.0625,-28.6856 10.5014,-5.4211 16.6347,-7.9396 22,-9.0351 6.8566,-1.4 19.6787,-5.9033 57.9375,-20.3477 27.9172,-10.54 28.9313,-10.9966 41,-18.4101 9.3223,-5.7266 14.465,-8.217 48.3359,-23.40822 13.6377,-6.11654 18.9567,-9.13147 28,-15.87696 6.1403,-4.58006 17.0505,-12.00078 24.2442,-16.49023 14.0552,-8.77163 23.1407,-17.09778 34.0625,-31.21289 3.1917,-4.125 7.8075,-9.975 10.2558,-13 5.8613,-7.2419 9.5275,-15.56048 11.4961,-26.07813 2.0805,-11.11574 1.9545,-17.79561 -0.5019,-26.42187 -1.0964,-3.85 -2.3611,-9.52063 -2.8165,-12.60157 -1.9345,-13.17465 -4.767,-17.87739 -19.5156,-32.39843 -8.5298,-8.3981 -12.1018,-12.74506 -15.1035,-18.37696 -4.2538,-7.98107 -11.245,-15.13498 -26.2734,-26.88867 -17.9464,-14.03578 -70.461,-43.39325 -86.9297,-48.5957 -10.7489,-3.3956 -29.2462,-7.17349 -44.2539,-9.03906 -15.1541,-1.88375 -39.7157,-3.71441 -47.1016,-3.51172 -4.2655,0.11706 -7.8114,-0.80077 -16.8984,-4.37305 -14.4002,-5.66097 -29.2526,-10.48954 -48.4141,-15.74023 -8.203,-2.24784 -18.7377,-5.41227 -23.4101,-7.03125 -4.6725,-1.61897 -8.5861,-2.94336 -8.6973,-2.94336 -0.1111,0 0.9539,-2.94235 2.3672,-6.53907 2.1061,-5.35979 3.3325,-7.02191 6.7988,-9.21484 6.2774,-3.97137 8.6998,-8.91586 7.8692,-16.04297 -1.097,-9.37489 -0.8519,-18.2033 0.58,-20.8789 0.7399,-1.38241 3.3852,-3.55167 5.877,-4.82032 2.4918,-1.26865 5.5385,-3.38842 6.7715,-4.71093 3.0423,-3.26345 7.7943,-13.29319 11.4082,-24.08008 2.5147,-7.50566 2.985,-10.46331 2.957,-18.57031 -0.018,-5.30377 -0.7129,-12.56758 -1.5449,-16.14258 -0.8321,-3.575 -2.3276,-13.37909 -3.3242,-21.78711 -1.5142,-12.77442 -1.6076,-16.06199 -0.5684,-20 1.915,-7.25746 1.5984,-12.20452 -1.0801,-16.88867 -1.313,-2.29626 -2.7129,-6.0945 -3.1094,-8.44141 -1.1032,-6.53002 -5.7255,-17.05856 -11.6367,-26.5 -9.2496,-14.77356 -15.0859,-19.11094 -26.3437,-19.58203 l -5.8125,-0.24414 -5.3067,-7.17578 c -5.003,-6.76506 -11.7782,-13.38086 -13.7031,-13.38086 -2.3275,0 -6.5071,-4.2685 -7.0879,-7.23828 -1.2413,-6.34794 -6.8824,-12.38526 -15.7304,-16.83399 -4.4756,-2.25026 -10.8875,-4.68766 -14.2481,-5.41797 -3.3606,-0.73031 -9.9363,-2.25885 -14.6113,-3.39453 -4.675,-1.13567 -10.525,-2.02406 -13,-1.97656 -9.7364,0.18698 -23.7838,-1.43713 -29.2852,-3.38477 -4.8857,-1.72968 -7.1804,-1.94899 -14.7441,-1.41211 -12.643,0.89742 -34.2913,4.33001 -41.9707,6.65625 -12.8093,3.88018 -25.8588,13.92737 -30.5528,23.52149 -2.7835,5.68928 -2.845,8.13117 -0.3613,14.17578 1.2344,3.00417 1.0354,3.78344 -3.3105,13 -2.5426,5.39234 -4.8889,10.70469 -5.2129,11.80469 -1.1046,3.7507 -22.6697,24.27903 -31.1641,29.66601 -2.6723,1.69475 -5.415,3.81285 -6.0957,4.70703 -1.6825,2.21025 -1.6141,9.26478 0.1348,13.85547 0.7899,2.07363 1.9318,7.71957 2.539,12.54492 0.6073,4.82535 1.3548,9.42488 1.6602,10.22071 0.3892,1.01428 -1.0796,2.1692 -4.9102,3.86328 -4.7332,2.09322 -6.8546,4.11278 -15.8457,15.08398 -5.7095,6.96685 -12.3039,15.00552 -14.6562,17.86328 -3.928,4.77173 -4.2543,5.60352 -4,10.18946 0.2699,4.86724 0.4337,5.10765 6.4726,9.5 3.4077,2.47851 6.4033,4.99735 6.6582,5.59961 0.6802,1.60735 -2.8579,8.98026 -6.3339,13.19726 -3.9955,4.84725 -3.8955,7.50363 0.3808,10.14649 5.5568,3.43427 5.5176,5.5441 -0.1523,8.44922 -3.6384,1.86422 -4.0968,3.98789 -1.5,6.95312 1.6697,1.90643 1.6688,1.96803 -0.041,1.34375 -0.9857,-0.35991 -8.8607,-2.7216 -17.5,-5.24805 -8.6393,-2.52646 -28.3071,-8.34651 -43.7071,-12.93554 -15.4,-4.58903 -45.1,-13.36389 -66,-19.49805 -20.9,-6.13416 -53.975,-15.9083 -73.5,-21.7207 -19.525,-5.81241 -38.2,-11.35936 -41.5,-12.32617 -3.3,-0.96682 -23.1,-6.93531 -44,-13.26368 -55.64678,-16.8497 -90.52506,-27.36479 -94.49997,-28.49023 -1.925,-0.54503 -17.9,-5.35243 -35.5,-10.68359 -17.6,-5.33119 -44.825,-13.50127 -60.5,-18.15626 -15.675,-4.65496 -38.4,-11.42549 -50.5,-15.04492 -12.1,-3.61943 -26.95,-8.04159 -33,-9.82812 -27.09167,-8 -76.16526,-23.00246 -103,-31.48828 -10.32121,-3.26383 -57.83578,-17.67122 -70.5,-21.37696 -20.97975,-6.13899 -48.721,-14.52112 -51.00195,-15.41015 l -2.50391,-0.97461 0.80469,-15.86914 c 0.44224,-8.72797 0.53226,-23.06914 0.19922,-31.86914 -0.33303,-8.8 -0.66056,-18.25 -0.72656,-21 -0.25131,-10.47449 7.33143,-79.63996 9.74804,-88.91797 2.31495,-8.88768 2.02353,-11.00535 -1.76953,-12.83203 -1.7875,-0.86083 -4.36945,-1.98666 -5.73633,-2.50196 -2.41433,-0.91016 -2.38066,-0.95671 1.15039,-1.61914 1.99911,-0.37504 4.10564,-1.24932 4.68164,-1.94336 0.576,-0.69404 1.72102,-5.74571 2.54493,-11.22461 3.12722,-20.79548 24.81993,-86.44545 41.62109,-125.960933 4.83295,-11.366857 21.74274,-44.706835 29.66992,-58.5 8.64487,-15.0418906 8.62462,-15.000045 7.08203,-15.0000001 z m -75.50977,0.00977 c -1.65834,0.020386 -19.13033,34.4142385 -24.3789,47.9902345 -9.52885,24.647396 -20.7425,60.998513 -24.36914,79.000003 -0.72023,3.575 -2.23588,10.85875 -3.36914,16.18554 -1.13327,5.32679 -3.41408,19.35847 -5.06836,31.18164 -3.13471,22.40384 -3.09302,24.46741 0.63086,30.25391 1.1938,1.85503 0.99023,3.42671 -1.61914,12.5 -5.01889,17.45168 -12.51343,49.09131 -25.98243,109.67188 -4.31577,19.41139 -8.01542,35.45837 -8.2207,35.66015 -1.20047,1.18 -23.15425,-1.60458 -33.87305,-4.29687 -34.31103,-8.61808 -43.00104,-9.94057 -42.99804,-6.54297 0.002,2.15833 4.49953,5.18528 16.88476,11.36328 6.04247,3.0141 13.45127,5.43405 26.5,8.6582 32.78371,8.10039 30.65309,7.4216 29.57422,9.4375 -0.52874,0.98796 -0.96094,2.95017 -0.96094,4.36133 0,1.41116 -0.3725,2.56641 -0.82617,2.56641 -0.45366,0 -4.13116,-1.125 -8.17383,-2.5 -8.04541,-2.73642 -11.96038,-3.02515 -20.10546,-1.48047 -6.71811,1.27407 -8.60283,3.13788 -10.49219,10.37305 -1.20805,4.6261 -1.30413,7.48352 -0.49219,14.75585 0.98011,8.77863 0.94049,9.12065 -1.51172,12.82618 -2.48321,3.75238 -3.87046,9.92859 -5.06836,22.57812 -0.46856,4.94789 -0.18684,6.80842 1.54102,10.19531 1.24042,2.4314 1.71477,4.38828 1.14844,4.73828 -0.53074,0.32802 -1.5018,2.49028 -2.15821,4.80469 -0.6564,2.31441 -2.41468,5.55899 -3.9082,7.20899 -6.05663,6.69122 -6.16302,14.44007 -0.31836,23.34179 2.21928,3.38008 3.26432,5.95123 2.84375,7 -1.55695,3.88255 -3.47616,12.49703 -3.44336,15.45703 0.0195,1.76068 0.60976,4.23768 1.3125,5.50391 1.24631,2.24567 9.25847,8.18436 11.05274,8.19336 2.02516,0.01 11.5996,5.51159 11.5996,6.66602 0,1.3048 -3.42943,20.10044 -7.54101,41.33789 -7.46148,38.54059 -9.55462,63.93243 -9.60352,116.5 -0.005,5.25481 0.0284,10.15097 0.0918,14.82617 0.03,-1.5648 0.18588,-3.128 0.54297,-4.68164 0.35167,-1.57246 0.75601,-3.1193 1.28906,-4.59961 -0.0251,-14.39669 0.35937,-26.37143 1.17383,-25.08399 0.67148,1.06159 0.89958,0.5918 0.83398,-1.71679 -0.0504,-1.77403 -0.51784,-2.91234 -1.05859,-2.57813 -1.19798,0.74038 -0.22579,-21.92654 1.87305,-43.66601 1.40055,-14.50659 4.31481,-33.89519 7.89062,-52.5 6.13541,-31.92223 7.41829,-39.9007 6.57617,-40.90235 -1.16529,-1.38606 -5.96701,-3.77392 -13.21289,-6.56836 -8.75778,-3.37751 -12.41197,-8.80061 -9.9707,-14.79882 0.61124,-1.50183 1.27093,-4.08047 1.4668,-5.73047 0.19586,-1.65 0.94701,-4.24183 1.66797,-5.75977 1.16014,-2.4426 1.07959,-3.01743 -0.69336,-5 -4.19233,-4.688 -6.32618,-9.44689 -6.32618,-14.10547 0,-3.8858 0.56199,-5.25188 3.5,-8.5039 2.0288,-2.24564 3.5,-4.92156 3.5,-6.36719 0,-1.37167 0.9,-3.63869 2,-5.03711 2.43934,-3.10112 2.51217,-5.0142 0.32032,-8.35938 -1.81055,-2.76324 -2.34529,-10.61316 -0.94532,-13.86718 0.47325,-1.1 0.91939,-4.49515 0.99219,-7.54492 0.14576,-6.10497 2.79348,-11.49199 5.19531,-10.57032 0.77746,0.29834 1.34151,0.22084 1.25391,-0.17187 -0.0876,-0.3927 0.19571,-2.85949 0.62891,-5.48242 0.54489,-3.29921 1.56238,-5.37951 3.30468,-6.75 2.23456,-1.75771 2.30073,-1.98047 0.58399,-1.98047 -2.60712,0 -4.33399,1.89558 -4.33399,4.75781 0,4.93493 -1.74923,1.00279 -2.40625,-5.41016 -1.41967,-13.85676 2.93746,-21.21252 12.73243,-21.49804 7.76645,-0.22639 10.23915,0.10832 16.3789,2.2207 3.08464,1.06128 6.88727,1.92969 8.45117,1.92969 2.5737,0 2.84375,-0.32686 2.84375,-3.44141 0,-1.89254 0.45,-3.71867 1,-4.05859 0.55,-0.33992 1,-1.66776 1,-2.94922 0,-2.4576 -1.66616,-3.08308 -18.5,-6.95117 -4.50756,-1.03576 -5.25378,-1.42258 -3,-1.5586 1.65,-0.0996 3.9,-0.5837 5,-1.07422 1.45138,-0.64722 0.35414,-0.8954 -4,-0.9082 -11.40054,-0.0334 -18.5792,-0.92201 -25.27734,-3.12695 -8.96871,-2.95238 -20.44861,-8.75862 -19.70312,-9.96485 0.32896,-0.53226 0.009,-1.03534 -0.71094,-1.11914 -0.71996,-0.0838 -1.7586,-0.21301 -2.3086,-0.28711 -0.55,-0.0741 -1.9,-0.66793 -3,-1.31836 -1.85561,-1.09722 -1.78859,-1.18469 0.93555,-1.21289 1.61486,-0.0167 5.66486,0.6282 9,1.43164 15.2418,3.67181 31.37222,7.44168 34.56445,8.07813 1.925,0.3838 4.2876,1.10996 5.25196,1.61523 0.96436,0.50528 5.46436,1.08975 10,1.29688 4.53564,0.20713 9.14804,0.64493 10.24804,0.97461 1.1,0.32967 2.56075,0.23203 3.2461,-0.21875 1.64851,-1.08429 5.79096,-18.58811 23.46875,-99.17383 1.1422,-5.20684 2.6862,-10.07683 3.43164,-10.82227 0.84737,-0.84737 1.11332,-2.32255 0.70898,-3.93359 -0.49618,-1.97692 -0.34149,-2.38755 0.66797,-1.76367 0.97628,0.60338 1.13344,0.34107 0.61133,-1.01953 -1.07579,-2.80346 1.40954,-12.69142 3.0332,-12.06836 1.61772,0.62078 1.74515,-0.61228 0.22071,-2.13672 -0.81444,-0.81444 -0.56136,-2.93681 0.94922,-7.95117 1.13312,-3.76154 2.53363,-8.63789 3.11132,-10.83789 1.22161,-4.65226 2.36668,-6.67603 3.64258,-6.43555 2.35867,0.44457 2.52312,-0.22933 0.48828,-1.99414 -4.45652,-3.86511 -5.59041,-7.8187 -5.45703,-19.0293 0.0808,-6.79344 0.52261,-10.58891 1.25781,-10.83398 0.62247,-0.20749 0.91972,-0.72261 0.66016,-1.14258 -0.25955,-0.41997 0.0427,-4.9445 0.67188,-10.05469 0.93247,-7.57345 1.47994,-9.37926 2.96484,-9.76758 1.95556,-0.51139 2.63595,-5.24218 0.7539,-5.24218 -0.6123,0 -0.79578,0.85269 -0.43164,2 0.39079,1.23127 0.18007,2 -0.54882,2 -0.76731,0 -0.97829,-0.96776 -0.59766,-2.75 0.32303,-1.5125 1.12047,-5.80829 1.77148,-9.54688 0.82807,-4.75545 1.73812,-7.09414 3.0293,-7.78515 1.01508,-0.54326 1.8457,-1.70318 1.8457,-2.57618 0,-1.3648 -0.23674,-1.39494 -1.6875,-0.21484 -1.48441,1.20746 -1.60539,1.15422 -1.0039,-0.44922 0.37602,-1.00239 1.4545,-4.71489 2.39648,-8.25 0.94197,-3.53511 2.22292,-6.42773 2.84766,-6.42773 0.62474,0 1.90965,-0.85353 2.85351,-1.89649 1.32083,-1.4595 1.41343,-1.9981 0.4043,-2.33789 -0.72112,-0.24282 -1.83598,0.27212 -2.47851,1.14453 -0.64253,0.87243 -1.49424,1.25968 -1.89258,0.86133 -0.39834,-0.39834 -0.28558,-1.29726 0.25195,-1.99805 0.53754,-0.7008 1.79104,-4.42343 2.78516,-8.27343 0.99412,-3.850097 2.13513,-7.450003 2.53515,-8.000003 0.40001,-0.55 1.04423,-2.8 1.43164,-5 0.3874,-2.2 1.28914,-4.909475 2.00391,-6.021485 0.71477,-1.112009 1.62912,-3.969432 2.03125,-6.349609 0.40213,-2.380178 1.57277,-5.051034 2.60352,-5.933594 1.03073,-0.882561 1.50969,-1.850138 1.0625,-2.15039 -1.31466,-0.882678 0.76949,-7.044922 2.38281,-7.044922 0.80928,0 1.50597,-0.3375 1.54687,-0.75 0.0409,-0.4125 0.26617,-1.789563 0.50196,-3.060547 0.25308,-1.364211 0.0229,-2.060992 -0.5625,-1.699219 -0.576,0.355988 -0.73447,-0.05585 -0.37891,-0.982422 0.33665,-0.877287 0.85637,-1.348711 1.15625,-1.048828 0.75568,0.75568 5.21752,-7.285623 5.16602,-9.310547 -0.0237,-0.930471 -0.87511,-0.124648 -1.95704,1.851563 -1.05389,1.925003 -1.93598,2.821564 -1.95898,1.992187 -0.0488,-1.754578 4.49384,-10.684414 6.73828,-13.246093 0.84488,-0.964301 1.80328,-3.391231 2.12891,-5.394532 0.32563,-2.0033 0.85953,-3.465647 1.1875,-3.248047 1.26709,0.840697 3.90429,-2.472684 3.90429,-4.90625 0,-1.406953 2.25,-6.939283 5,-12.292968 4.90525,-9.54951607 5.75007,-11.9129715 4.25,-11.8945315 z m 20.16211,0.00195 c -0.61356,0.04527 -1.64085,1.10403002 -2.7539,2.9882813 -1.52137,2.575481 -1.55607,3 -0.25,3 1.50343,0 3.59179,-2.8701489 3.59179,-4.9355469 0,-0.7439029 -0.21975,-1.0798964 -0.58789,-1.0527344 z m 51.92383,0.3691406 c -0.0901,-0.00227 -0.20594,0.037415 -0.34765,0.125 -0.5437,0.33602663 -0.98829,1.03519345 -0.98829,1.55273442 0,1.43843198 0.71607,1.12108888 1.38086,-0.61132812 0.25612,-0.66744227 0.22475,-1.0595969 -0.0449,-1.0664063 z m -68.27734,0.61914068 c -0.58246,-2e-8 -1.0586,0.44999999 -1.0586,1 0,0.54999998 0.19887,1.00000002 0.44141,1.00000002 0.24254,0 0.71867,-0.45000002 1.05859,-1.00000002 0.33992,-0.55000001 0.14106,-1 -0.4414,-1 z m -1.5586,3.33398432 c -0.77661,1e-7 -1.1817,0.3736983 -0.89843,0.8320313 0.28326,0.458334 0.68835,0.8339844 0.89843,0.8339844 0.21008,0 0.61323,-0.3756504 0.89649,-0.8339844 0.28327,-0.458333 -0.11988,-0.8320313 -0.89649,-0.8320313 z m 66.03516,1.0625 c -0.30476,0.072433 -0.68906,0.5708812 -0.9707,1.3105469 -0.54268,1.425198 -0.42903,1.5388618 0.55859,0.5585938 0.68342,-0.678333 0.99152,-1.4850818 0.68359,-1.7929688 -0.077,-0.076972 -0.16989,-0.1003131 -0.27148,-0.076172 z m -52.56055,3.6035157 c -0.56361,0 -1.41738,1.0309126 -1.89648,2.2910156 -0.92185,2.4246525 -4.06775,5.5619565 -4.09375,4.0820315 -0.008,-0.479845 -0.45122,-0.198047 -0.98438,0.626953 -0.53316,0.825 -0.95891,2.625 -0.94531,4 0.0245,2.474145 0.0417,2.469355 1.63672,-0.478516 0.88644,-1.638271 2.89245,-4.261589 4.45899,-5.828125 2.93416,-2.9341618 3.61863,-4.6933591 1.82421,-4.6933591 z M 529.34375,31.740234 c -0.0741,-0.01543 -0.15645,-0.01687 -0.24609,0.002 -0.11954,0.02309 -0.25118,0.07713 -0.38868,0.162109 -0.55,0.339919 -1,1.067187 -1,1.617187 0,0.55 0.45,0.722732 1,0.382813 0.55,-0.339919 1,-1.069141 1,-1.619141 0,-0.309375 -0.14287,-0.498634 -0.36523,-0.544922 z m 44.92383,18.664063 c -0.24254,0 -0.71868,0.45 -1.0586,1 -0.33992,0.55 -0.14105,1 0.44141,1 0.58246,0 1.05859,-0.45 1.05859,-1 0,-0.55 -0.19886,-1 -0.4414,-1 z m -90.92383,86.335933 c -0.0741,-0.0154 -0.15645,-0.0154 -0.24609,0.002 -0.11954,0.0231 -0.25118,0.0771 -0.38868,0.16211 -0.55,0.33992 -1,1.06718 -1,1.61718 0,0.55 0.45,0.72274 1,0.38282 0.55,-0.33992 1,-1.06914 1,-1.61914 0,-0.30938 -0.14287,-0.49864 -0.36523,-0.54493 z m -2.16797,6.125 c -0.18087,-0.0674 -0.30859,0.50782 -0.30859,1.53907 0,1.375 0.22649,1.9375 0.5039,1.25 0.27741,-0.6875 0.27741,-1.8125 0,-2.5 -0.0693,-0.17188 -0.13502,-0.2666 -0.19531,-0.28907 z m 0.1836,15.04493 c -0.28317,0.0918 -0.78307,0.66494 -1.6504,1.76757 -1.1,1.39842 -2,2.81217 -2,3.14258 0,0.33041 0.9,0.0385 2,-0.64843 1.1,-0.68701 2,-2.1007 2,-3.14258 0,-0.8215 -0.0664,-1.21093 -0.3496,-1.11914 z m -4.65235,15.05273 c -0.37883,0.0386 -0.66601,1.04 -0.66601,2.44141 0,1.60161 0.37564,2.67975 0.83398,2.39648 0.45833,-0.28326 0.83398,-1.3614 0.83398,-2.39648 0,-1.03508 -0.37565,-2.11323 -0.83398,-2.39649 -0.0573,-0.0354 -0.11385,-0.0504 -0.16797,-0.0449 z m -0.99805,16.44141 c -0.55,0 -0.99237,1.4625 -0.98437,3.25 0.0116,2.46622 0.24877,2.88826 0.98437,1.75 1.2702,-1.96549 1.2702,-5 0,-5 z m -3.63671,2.3457 c 0.0909,0.0138 0.19867,0.16765 0.31835,0.4668 0.28893,0.72187 0.25355,1.58371 -0.0781,1.91601 -0.33229,0.33229 -0.56879,-0.25834 -0.52539,-1.3125 0.03,-0.72809 0.13358,-1.09326 0.28516,-1.07031 z m 5.97461,21.18945 c -0.18264,0.0704 -0.22795,0.99693 -0.24415,2.96485 -0.0251,3.05007 0.19594,3.6051 0.93555,2.33789 0.61152,-1.04769 0.6239,-2.52598 0.0332,-4 -0.35854,-0.89469 -0.58256,-1.35748 -0.7246,-1.30274 z m -4.39649,15.46485 c -0.58246,0 -0.78133,0.45 -0.44141,1 0.33992,0.55 0.81606,1 1.0586,1 0.24254,0 0.4414,-0.45 0.4414,-1 0,-0.55 -0.47613,-1 -1.05859,-1 z m -10.54883,46 c -0.21615,0 -0.39258,0.675 -0.39258,1.5 0,0.825 0.43601,1.5 0.96875,1.5 0.53273,0 0.70916,-0.675 0.39258,-1.5 -0.31659,-0.825 -0.75259,-1.5 -0.96875,-1.5 z m -8.51172,61 c -0.55,0 -0.72078,0.45 -0.38086,1 0.33992,0.55 1.06719,1 1.61719,1 0.55,0 0.72273,-0.45 0.38281,-1 -0.33992,-0.55 -1.06914,-1 -1.61914,-1 z m -48.00976,29.11328 c -0.90625,-0.002 -1.84739,0.053 -2.60742,0.16797 -1.52006,0.22985 -0.51368,0.42364 2.23632,0.43164 2.74995,0.007 3.99362,-0.18061 2.76368,-0.41797 -0.61497,-0.11866 -1.48633,-0.17917 -2.39258,-0.18164 z m 8.99804,1.00586 c -0.725,-0.004 -1.48546,0.0542 -2.10742,0.17383 -1.24391,0.23919 -0.46172,0.44397 1.73828,0.45507 2.19996,0.0111 3.21781,-0.18525 2.26172,-0.43554 -0.47804,-0.12516 -1.16753,-0.1897 -1.89258,-0.19336 z M 1454.209,382.5918 c -1.65,-0.0264 -3.9,0.33981 -5,0.8125 l -2,0.85937 2,-0.0488 c 1.1,-0.0264 3.35,-0.39069 5,-0.81054 l 3,-0.76368 z m -911.55861,17.8125 c -0.58246,0 -0.78133,0.45 -0.44141,1 0.33992,0.55 0.81606,1 1.0586,1 0.24254,0 0.4414,-0.45 0.4414,-1 0,-0.55 -0.47613,-1 -1.05859,-1 z m -134.6875,2.15429 c -0.70965,0.0516 -1.71397,0.72393 -2.02539,1.65821 -0.24358,0.73075 0.21359,0.95379 1.1875,0.58008 0.87096,-0.33423 1.58398,-1.047 1.58398,-1.58399 0,-0.4929 -0.3203,-0.68526 -0.74609,-0.6543 z m 984.56251,0.43946 c -0.3794,0.053 -1.2995,0.9776 -2.2109,2.2539 l -1.8946,2.65235 2.3399,-2.22266 c 1.2862,-1.22222 2.137,-2.41593 1.8925,-2.65234 -0.031,-0.0295 -0.073,-0.0388 -0.1269,-0.0312 z M 550.875,403.4043 c -3.16144,0 -2.36221,0.81143 2.50977,2.54882 2.10343,0.75012 5.39921,1.33027 7.32421,1.28907 3.37843,-0.0723 3.33689,-0.11512 -1.17382,-1.20703 -2.57017,-0.62217 -5.00702,-1.46836 -5.41602,-1.88086 -0.409,-0.4125 -1.86914,-0.75 -3.24414,-0.75 z m -9.94336,0.57812 c -0.71719,-0.0495 -1.22266,0.14174 -1.22266,0.51563 0,0.49851 0.9,0.90625 2,0.90625 1.1,0 2,-0.17197 2,-0.38282 0,-0.21085 -0.9,-0.62054 -2,-0.9082 -0.275,-0.0719 -0.53828,-0.11437 -0.77734,-0.13086 z m 5.48633,1.45703 c -1.21572,0.0195 0.71601,1.08107 4.29101,2.35938 7.31884,2.61698 9,2.95498 9,1.81055 0,-0.98913 -10.29208,-4.21793 -13.29101,-4.16993 z m 20.01953,2.53321 c -0.44473,0.0367 -0.72852,0.19344 -0.72852,0.45117 0,0.45818 0.7875,1.03949 1.75,1.29101 0.9625,0.25153 1.8625,0.50847 2,0.57227 0.1375,0.0638 0.25,-0.27978 0.25,-0.76563 0,-0.48585 -0.9,-1.12054 -2,-1.4082 -0.275,-0.0719 -0.53828,-0.1165 -0.77734,-0.13672 -0.1793,-0.0152 -0.3459,-0.0131 -0.49414,-0.004 z m 5.64844,2.27929 c -0.49292,-0.003 -0.83383,0.0821 -0.94727,0.26563 -0.30119,0.48734 0.26676,0.92265 1.26172,0.9668 0.99496,0.0441 4.05859,0.85417 6.80859,1.80078 2.75,0.94661 5.15703,1.61543 5.34961,1.48632 0.98791,-0.66235 -1.25265,-2.37392 -3.1582,-2.4121 -1.20504,-0.0241 -3.88436,-0.64657 -5.95312,-1.38477 -1.29863,-0.46339 -2.53981,-0.71718 -3.36133,-0.72266 z m -23.87305,0.15235 c -2.37774,0 -1.22957,4.31668 2.3125,8.69531 1.47596,1.82455 3.92109,4.83665 5.43359,6.69336 1.5125,1.85671 2.75,4.49121 2.75,5.85547 0,1.36426 1.35714,4.18989 3.01758,6.27929 2.76527,3.47963 3.98104,6.64237 6.90625,17.97657 0.56779,2.2 2.16773,5.66394 3.55469,7.69726 1.38695,2.03332 2.52148,4.2139 2.52148,4.84571 0,0.63182 0.77126,2.45537 1.71485,4.05273 1.38465,2.34403 2.40622,2.9043 5.29101,2.9043 1.96586,0 6.10136,0.65804 9.19141,1.46289 3.09005,0.80486 8.44441,1.91835 11.89844,2.47461 3.45404,0.55625 8.55783,2.07145 11.34179,3.36718 2.78396,1.29573 7.43878,3.41558 10.34375,4.71094 2.90497,1.29535 5.77763,2.95244 6.38282,3.68164 2.39429,2.88495 14.34241,6.83598 29.83593,9.86524 1.925,0.37637 5.62258,1.75331 8.2168,3.06054 2.59421,1.30723 5.49491,2.37696 6.44727,2.37696 1.55135,0 10.69985,5.79493 17.33593,10.98242 1.375,1.07485 6.775,3.10508 12,4.51172 5.225,1.40664 12.4563,3.44571 16.07032,4.53125 5.19938,1.56173 9.52031,1.97461 20.69922,1.97461 19.96324,0 44.83255,3.68696 61.39062,9.0332 0.10912,0.0224 0.21909,0.0396 0.32813,0.0625 4.83035,1.05108 9.62518,2.30116 14.20312,4.19727 0.13694,0.0611 0.26969,0.12964 0.40625,0.1914 0.64408,0.17789 1.27523,0.36516 1.90234,0.53516 10.27148,2.78435 23.51516,7.08565 27.5,8.92969 1.1,0.50904 2.98458,1.20083 4.18946,1.5371 1.20489,0.33628 5.92797,3.09602 10.49414,6.13477 4.56617,3.03875 9.54585,5.77402 11.0664,6.07813 2.63478,0.52695 5.8637,3.54017 10.25,9.5664 2.31759,3.18408 3.58504,3.31223 21.70313,2.17578 9.43026,-0.59151 13.1216,-0.40488 19,0.96289 25.06415,5.83184 29.99377,7.09849 36.29687,9.32227 3.85,1.35832 9.025,3.38171 11.5,4.49805 2.475,1.11633 9.73148,3.73118 16.125,5.81054 6.39353,2.07935 13.36852,4.87068 15.50002,6.20313 2.1315,1.33245 7.25,4.03228 11.375,5.99804 9.0306,4.30399 12.7367,4.57618 46,3.38868 17.8264,-0.6364 25.5118,-0.48153 37,0.74609 19.1718,2.04869 33.3607,4.26004 39.5,6.15625 2.75,0.84938 8.2807,2.00595 12.291,2.56836 4.0102,0.56241 9.1852,1.69637 11.5,2.52148 2.3147,0.8251 6.3445,1.91316 8.9551,2.41602 2.6107,0.50287 6.7486,1.82486 9.1953,2.93945 2.4467,1.11459 5.1831,2.02735 6.082,2.02735 0.8989,0 4.4109,1.07958 7.8047,2.40039 3.3939,1.32082 8.6469,2.94613 11.6719,3.61133 3.025,0.66519 6.9876,2.06061 8.8066,3.0996 1.8189,1.03901 3.9154,1.88868 4.6582,1.88868 1.9266,0 11.0989,4.81883 17.4473,9.16601 6.2532,4.28204 15.4767,15.29798 18.2812,21.83399 1.1666,2.71884 3.6618,5.86166 6.3028,7.9414 2.4041,1.89321 4.5837,4.25571 4.8437,5.25 0.3165,1.21029 1.4141,1.8086 3.3223,1.8086 1.5676,0 4.4184,0.44868 6.334,0.99804 1.9155,0.54936 7.0113,1.44163 11.3242,1.98243 9.9557,1.24833 20.6073,4.62304 32.6934,10.35742 8.6765,4.11661 14.1216,5.93227 20.9863,7 12.7753,1.98706 11.604,-3.86308 -1.6738,-8.35938 -3.3959,-1.14995 -6.7072,-2.73196 -7.3575,-3.51562 -1.3728,-1.65412 -0.8457,-7.51128 1.0957,-12.16407 1.7059,-4.08812 0.3793,-5.70063 -8.8964,-10.8125 -20.8796,-11.50679 -24.2662,-13.89451 -26.1504,-18.44335 -1.3917,-3.35992 -0.6637,-8.33306 2.539,-17.33008 1.5535,-4.36417 1.3152,-7.70186 -0.3613,-5.0586 -0.4719,0.7441 -7.9304,-1.07914 -23.1953,-5.66992 -28.5589,-8.5888 -127.1228,-38.03669 -141,-42.12695 -5.775,-1.70217 -18.375,-5.48604 -28,-8.4082 -9.625,-2.92216 -23.8,-7.19342 -31.5,-9.49024 -14.5774,-4.34827 -40.8634,-12.2452 -55.5,-16.67383 -4.675,-1.41452 -16.3448,-4.91778 -25.93166,-7.78515 -9.58685,-2.86737 -17.01185,-5.42956 -16.5,-5.69336 0.51184,-0.26381 0.32125,-0.32446 -0.42382,-0.13477 -0.74508,0.18969 -7.94508,-1.64127 -16,-4.07031 -21.00076,-6.33297 -65.94778,-19.93004 -84.64454,-25.60547 -8.8,-2.67126 -32.65,-9.88351 -53,-16.02734 -20.35,-6.14384 -42.85,-12.96888 -50,-15.16602 -7.15,-2.19713 -15.7,-4.8007 -19,-5.78711 -3.3,-0.98641 -11.4,-3.46226 -18,-5.50195 -6.6,-2.03968 -16.60045,-5.10957 -22.22265,-6.82031 -6.74245,-2.0516 -9.80615,-3.4116 -9,-3.9961 0.79276,-0.5748 0.54134,-0.66356 -0.71485,-0.25195 -1.99387,0.65332 -30.5625,-7.29575 -30.5625,-8.50391 0,-0.36492 1.2375,-0.44539 2.75,-0.17773 3.55888,0.6298 1.8288,-1.25061 -1.9746,-2.14649 -2.26752,-0.5341 -2.61464,-0.36179 -2.08008,1.03125 0.72357,1.88559 1.62422,2.04419 -12.19532,-2.1582 -4.95,-1.50525 -13.18609,-3.93297 -18.30273,-5.39453 -5.17017,-1.47685 -8.94627,-3.04805 -8.5,-3.53711 0.44362,-0.48616 0.26961,-0.57546 -0.38672,-0.19922 -1.15559,0.66244 -3.30298,0.11725 -25.31055,-6.41992 -5.775,-1.71542 -12.525,-3.70584 -15,-4.42383 -2.475,-0.71799 -13.11318,-3.82717 -23.63867,-6.91015 -10.52549,-3.08298 -19.91079,-5.60547 -20.85742,-5.60547 z m 15.26953,0.0605 c -0.50765,0 -0.77344,0.313 -0.77344,0.93946 0,0.55 1.0125,0.99237 2.25,0.98437 1.81944,-0.0124 1.96296,-0.2005 0.75,-0.98437 -0.96938,-0.62646 -1.7189,-0.93946 -2.22656,-0.93946 z m -13.97656,1.88868 2.35156,0.95898 c 1.29331,0.52725 7.07656,2.32531 12.85156,3.99414 42.03759,12.14784 67.10134,19.54227 112.5,33.19141 20.35,6.11824 39.025,11.70546 41.5,12.41601 2.475,0.71055 13.275,3.99487 24,7.29883 27.97584,8.61829 97.73543,29.9132 123.5,37.69922 12.1,3.6566 31.675,9.56979 43.5,13.14258 11.825,3.57279 31.175,9.44627 43,13.05078 11.825,3.60451 23.525,7.11931 26,7.81055 2.475,0.69125 16.64937,4.9481 31.50002,9.45898 14.85,4.51088 36,10.88769 47,14.17188 11,3.2842 31.7,9.5131 46,13.84179 14.3,4.32869 41.3,12.4318 60,18.00781 31.8926,9.50978 69.7912,20.87215 95,28.48243 6.05,1.82644 16.85,5.025 24,7.10742 7.15,2.08242 13.3149,4.04057 13.6992,4.35156 0.3844,0.311 -0.1781,3.22282 -1.25,6.4707 -2.5347,7.68051 -2.4597,10.05125 0.4863,15.07813 2.814,4.80172 8.2015,8.57497 29.9063,20.94922 4.0843,2.32834 4.7335,3.09697 4.1504,4.91406 -1.7649,5.49988 -2.7656,11.50101 -2.1739,13.04297 0.358,0.93294 4.3703,3.44334 8.9161,5.57812 6.7491,3.16947 7.7153,3.88415 5.2656,3.90235 -4.0411,0.03 -12.168,-2.74137 -22.8184,-7.78125 -10.1666,-4.81094 -22.2366,-8.1378 -38.9316,-10.73047 -7.2427,-1.12477 -11.75,-2.27113 -11.75,-2.99024 0,-0.64164 -2.444,-3.40016 -5.4297,-6.1289 -2.9857,-2.72874 -6.0752,-6.48567 -6.8672,-8.34961 -2.1765,-5.1222 -11.2167,-15.85762 -17.0312,-20.22656 -5.004,-3.75989 -22.5899,-12.7391 -27.6719,-14.12891 -4.0203,-1.09948 -24.9658,-7.48799 -31.5,-9.60742 -3.3,-1.07039 -6.9,-1.94917 -8,-1.95117 -1.1,-0.002 -4.025,-0.7156 -6.5,-1.58594 -2.475,-0.87034 -8.325,-2.20011 -13,-2.95508 -4.675,-0.75498 -12.4321,-2.28761 -17.2383,-3.4043 -23.0315,-5.35124 -51.9557,-7.60645 -80.2617,-6.25781 -25.9499,1.23639 -29.7878,0.7811 -39.5,-4.6914 -9.2246,-5.19777 -19.41656,-9.60185 -28.00002,-12.09961 -3.575,-1.04032 -11.39708,-3.90306 -17.38281,-6.36133 -5.98572,-2.45826 -16.78572,-5.85451 -24,-7.54688 -7.21427,-1.69237 -16.19667,-3.81778 -19.96094,-4.72265 -5.48014,-1.31734 -9.91783,-1.5327 -22.26562,-1.08203 l -15.42188,0.5625 -4.73437,-5.51172 c -2.75814,-3.21149 -6.61301,-6.38411 -9.23438,-7.59766 -2.475,-1.14579 -6.4406,-3.39146 -8.8125,-4.99219 -6.37159,-4.3 -15.10943,-7.97367 -29.6875,-12.48047 -46.84055,-14.48073 -67.12497,-18.46328 -92.35937,-18.13086 -11.06632,0.14578 -13.88583,-0.17819 -22.64063,-2.60937 -19.67142,-5.46271 -23.55946,-6.82601 -26.26171,-9.20899 -1.50685,-1.3288 -4.08829,-3.13151 -5.73829,-4.00585 -1.65,-0.87434 -4.39379,-2.64793 -6.0957,-3.94141 -1.70192,-1.29349 -3.79442,-2.35156 -4.65039,-2.35156 -0.85598,0 -3.96219,-1.1222 -6.9043,-2.49219 -2.94212,-1.37 -6.92461,-2.77064 -8.84961,-3.11328 -12.60275,-2.24324 -22.99453,-5.7511 -30.5,-10.29688 -12.86503,-7.79187 -21.2615,-10.60526 -42.5,-14.23633 -3.575,-0.61117 -7.04765,-1.25913 -7.71679,-1.4414 -1.58747,-0.43242 -8.53636,-14.37896 -10.67188,-21.41992 -3.35981,-11.07751 -3.95251,-12.55729 -6.25976,-15.59375 -1.29319,-1.70192 -2.35157,-3.81842 -2.35157,-4.70313 0,-2.09039 -2.10762,-6.70312 -3.0625,-6.70312 -0.40739,0 -1.65927,-1.4625 -2.78125,-3.25 -1.12198,-1.7875 -3.01106,-4.49926 -4.19921,-6.02539 z m 20.20312,0.0508 c -1.16492,0 -1.83992,0.45 -1.5,1 0.33992,0.55 1.01492,1 1.5,1 0.48508,0 1.16008,-0.45 1.5,-1 0.33992,-0.55 -0.33508,-1 -1.5,-1 z m 6.59766,2.4375 c -0.6363,-0.0781 -0.26676,0.25404 0.84375,1.09375 1.06762,0.80727 2.82947,1.46875 3.91602,1.46875 2.68905,0 1.61565,-0.86674 -2.47266,-1.99805 -1.1622,-0.3216 -1.90533,-0.51758 -2.28711,-0.56445 z M 403,415.12109 c -0.9888,0.043 -1.84426,0.44916 -2.32617,1.34961 -1.46405,2.7356 -1.16647,3.9336 0.97656,3.9336 1.06754,0 2.21867,0.45 2.55859,1 0.91301,1.47728 4.20268,1.21458 4.81641,-0.38477 1.10732,-2.88564 -3.059,-6.0274 -6.02539,-5.89844 z m 10.79688,0.28321 c -2.55591,0 -3.25008,2.32484 -1.45704,4.88476 1.63119,2.32884 2.90557,2.67457 3.9043,1.0586 1.18449,-1.91654 -0.47392,-5.94336 -2.44726,-5.94336 z m 176.83203,0.11132 c -0.4695,-0.024 -0.70112,0.0451 -0.64258,0.22071 0.35412,1.06238 4.94273,2.86133 13.22265,5.18359 2.75,0.77129 9.275,2.71811 14.5,4.32617 11.85745,3.64926 15.1476,3.9066 8.11914,0.63477 -2.95879,-1.37736 -5.88381,-2.38937 -6.5,-2.24805 -1.15904,0.26585 -7.51411,-1.47998 -13.61914,-3.74023 -6.55807,-2.42798 -13.04557,-4.27271 -15.08007,-4.37696 z m -4.91993,1.91797 c -0.82676,-3.1e-4 -0.37794,0.59024 1,1.31641 1.375,0.72462 2.71164,1.14427 2.97071,0.93164 0.70327,-0.57722 -2.24656,-2.24739 -3.97071,-2.24805 z m -182.04296,0.0469 c 0.62846,0.0474 1.43146,0.50756 2.60156,1.39258 2.23655,1.69164 1.76459,1.95029 -0.81641,0.44726 -0.96686,-0.56304 -2.27398,-0.70615 -2.90429,-0.3164 -0.70757,0.4373 -0.87392,0.26713 -0.4336,-0.44532 0.47042,-0.76114 0.92427,-1.12558 1.55274,-1.07812 z m 9.36523,0.12695 c 0.20614,0.0261 0.50255,0.2213 0.86133,0.58008 0.65087,0.65084 0.95018,1.41506 0.66601,1.69922 -0.28417,0.28417 -0.81693,0.21628 -1.18359,-0.15039 -0.36667,-0.36666 -0.66602,-1.13088 -0.66602,-1.69922 0,-0.3133 0.11613,-0.45582 0.32227,-0.42969 z m 179.05469,1.79688 c -1.33509,0 -1.40061,0.26848 -0.36719,1.51367 0.69071,0.83226 1.75892,1.43339 2.37305,1.33789 0.61413,-0.0955 2.38333,0.35008 3.93164,0.98828 1.5483,0.6382 3.88467,1.16016 5.1914,1.16016 1.3057,0 2.60597,0.37599 2.89063,0.83398 0.28502,0.45788 1.90052,0.83203 3.5918,0.83203 1.69253,0 2.72576,-0.3037 2.29492,-0.67578 -1.29564,-1.11895 -12.46191,-4.29068 -15.47266,-4.39453 -1.54362,-0.0532 -2.80759,-0.4332 -2.80859,-0.8457 -0.001,-0.4125 -0.73266,-0.75 -1.625,-0.75 z m -94.43555,4 c -0.58246,0 -0.78133,0.45 -0.44141,1 0.33992,0.55 0.81606,1 1.0586,1 0.24254,0 0.4414,-0.45 0.4414,-1 0,-0.55 -0.47613,-1 -1.05859,-1 z m 116.87305,2.75976 c -0.5135,-0.0107 -0.81446,0.0635 -0.81446,0.23047 0,0.44536 2.25027,1.34965 5.00196,2.00977 2.7517,0.66012 5.19235,1.50632 5.42383,1.88086 0.4755,0.76937 4.57421,1.24539 4.57421,0.53125 0,-0.63565 -4.55326,-2.38481 -10.25,-3.9375 -1.63281,-0.44503 -3.07971,-0.69707 -3.93554,-0.71485 z m 770.91996,0.44336 c -0.098,-0.0504 -0.2295,0.13369 -0.3985,0.55274 -0.2785,0.69092 -0.8718,1.03065 -1.3164,0.75586 -0.4446,-0.27479 -0.743,0.62953 -0.664,2.00976 0.1295,2.25981 0.2689,2.34012 1.3945,0.80274 0.6875,-0.93899 1.2129,-2.40825 1.1699,-3.26563 -0.026,-0.51999 -0.088,-0.80505 -0.1855,-0.85547 z m -736.98442,6.86719 c -2.1469,0.0671 -2.15836,0.10964 -0.25,0.92969 1.1,0.47269 2.1125,0.89098 2.25,0.92968 0.1375,0.0387 0.25,-0.37968 0.25,-0.92968 0,-0.55 -1.0125,-0.96839 -2.25,-0.92969 z m -1.10156,2.25391 c -0.1946,-0.003 -0.34532,0.0367 -0.43554,0.12695 -0.361,0.36101 0.007,1.07622 0.8164,1.58789 2.6449,1.67269 4.59422,1.08614 2.12891,-0.64063 -0.94346,-0.66084 -1.92596,-1.06554 -2.50977,-1.07421 z m 16.85156,1.73828 2.35938,1.96875 c 2.45481,2.04676 4.14062,2.52994 4.14062,1.1875 0,-0.42942 -1.4625,-1.31557 -3.25,-1.96875 z m -7.03515,2.16601 c -0.28772,0.053 -0.46485,0.21104 -0.46485,0.45899 0,0.49588 2.5875,1.57466 5.75,2.39843 3.1625,0.82377 5.90703,1.39766 6.09961,1.27344 1.14797,-0.7405 -1.36563,-2.18694 -4.74023,-2.72656 -2.16411,-0.34605 -4.64842,-0.90324 -5.52148,-1.23828 -0.43656,-0.16752 -0.83533,-0.21903 -1.12305,-0.16602 z m 17.70703,0.85938 c -0.1326,-0.004 -0.25461,0.002 -0.36524,0.0156 -0.53088,0.0662 -0.80664,0.33638 -0.80664,0.8125 0,0.50416 0.5625,1.14447 1.25,1.42188 0.6875,0.27741 2.6,0.50295 4.25,0.50195 l 3,-0.002 -3,-1.375 c -1.93732,-0.88709 -3.3999,-1.3478 -4.32812,-1.375 z m 899.18364,2.16992 c -0.13,0.0549 -0.035,0.41337 0.2285,1.09961 0.3464,0.90279 1.0322,1.64258 1.5234,1.64258 1.2859,0 1.1044,-0.5794 -0.6309,-2.01953 -0.6366,-0.52839 -0.9911,-0.77759 -1.121,-0.72266 z M 399.27148,443.4043 c -2.19636,0 -3.70246,2.4616 -2.33984,3.82422 0.16754,0.16754 0.32214,0.30792 0.47266,0.4375 0.57149,-1.44429 1.22584,-2.85546 1.96484,-4.25 -0.0346,-10e-4 -0.0623,-0.0117 -0.0977,-0.0117 z m 1174.00392,2.14648 c -0.041,0.01 -0.079,0.032 -0.1133,0.0664 -0.275,0.275 -0.2094,1.26006 0.1465,2.1875 0.3559,0.92744 0.8715,1.46054 1.1465,1.18554 0.275,-0.275 0.2094,-1.2581 -0.1465,-2.18554 -0.3114,-0.81151 -0.7453,-1.32328 -1.0332,-1.25391 z m -865.95509,5.19727 c -0.35859,-0.0603 -0.61133,0.16081 -0.61133,0.59765 0,0.58246 0.45,1.0586 1,1.0586 0.55,0 1,-0.19887 1,-0.44141 0,-0.24254 -0.45,-0.71867 -1,-1.05859 -0.1375,-0.085 -0.26914,-0.13616 -0.38867,-0.15625 z m 21.91211,6.69531 c -0.54646,0.0357 -0.54263,0.31484 0.0254,0.83984 0.5225,0.4832 4.32617,1.86234 8.45117,3.06446 4.125,1.20212 8.4,2.57527 9.5,3.05273 1.1,0.47745 2.9,0.8846 4,0.9043 1.96489,0.0352 1.96549,0.01 0.0762,-1.41992 -1.05806,-0.80051 -3.53306,-1.73936 -5.5,-2.08594 -1.96695,-0.34659 -6.14978,-1.47631 -9.29493,-2.51172 -3.90631,-1.28599 -6.34703,-1.90321 -7.25781,-1.84375 z m 1.41797,3.96094 c -0.58246,0 -0.78133,0.45 -0.44141,1 0.33992,0.55 0.81606,1 1.0586,1 0.24254,0 0.4414,-0.45 0.4414,-1 0,-0.55 -0.47613,-1 -1.05859,-1 z m 4.11719,1.03125 c -1.24626,0.0254 -1.16905,0.32623 0.38281,1.5 1.06762,0.80751 2.64262,1.455 3.5,1.4375 1.24626,-0.0254 1.16905,-0.32623 -0.38281,-1.5 -1.06762,-0.80751 -2.64262,-1.455 -3.5,-1.4375 z m 625.94142,0.96875 c 0.052,0.0516 -0.2512,0.45697 -0.8731,1.25 -1.3064,1.66575 -2.1269,2.19608 -2.1269,1.37304 0,-0.20765 0.7875,-0.99515 1.75,-1.75 0.793,-0.62193 1.1984,-0.92466 1.25,-0.87304 z m -969.36525,0.33593 c -0.0741,-0.0154 -0.15645,-0.0154 -0.24609,0.002 -0.11954,0.0231 -0.25118,0.0771 -0.38868,0.16211 -0.55,0.33992 -1,1.06718 -1,1.61718 0,0.55 0.45,0.72274 1,0.38282 0.55,-0.33992 1,-1.06914 1,-1.61914 0,-0.30938 -0.14287,-0.49864 -0.36523,-0.54493 z m 356.61523,2.67969 c -1.49555,0.0131 -1.5319,0.15595 -0.25,0.98438 1.88721,1.21961 2,1.21961 2,0 0,-0.55 -0.7875,-0.99238 -1.75,-0.98438 z m 12.52344,0.0449 c -0.50765,0 -0.77344,0.313 -0.77344,0.93946 0,0.55 1.0125,0.99237 2.25,0.98437 1.81944,-0.0124 1.96296,-0.2005 0.75,-0.98437 -0.96938,-0.62646 -1.7189,-0.93946 -2.22656,-0.93946 z m 6.82031,1.94532 c -1.81473,0.005 -1.6924,0.26122 0.90625,1.92578 3.94595,2.52753 5.25276,2.5564 3,0.0684 -0.99549,-1.1 -2.75399,-1.99714 -3.90625,-1.99414 z m 586.52347,0.99414 c 0.55,0 0.7227,0.45 0.3828,1 -0.3399,0.55 -1.0692,1 -1.6192,1 -0.55,0 -0.7207,-0.45 -0.3808,-1 0.3399,-0.55 1.0672,-1 1.6172,-1 z m -569.17581,4 c -0.58246,0 -0.78133,0.45 -0.44141,1 0.33992,0.55 0.81606,1 1.0586,1 0.24254,0 0.4414,-0.45 0.4414,-1 0,-0.55 -0.47613,-1 -1.05859,-1 z m -14.02539,0.12304 c -0.3474,-0.0143 -0.74258,0.0489 -1.10352,0.19336 -0.79773,0.31922 -0.56143,0.55552 0.60352,0.60352 1.05416,0.0434 1.64479,-0.1931 1.3125,-0.52539 -0.16614,-0.16613 -0.4651,-0.25718 -0.8125,-0.27149 z m 20.75586,2.35157 c -0.37719,0.04 -0.21275,0.37414 0.39258,1.10351 0.64878,0.78173 1.82737,1.42188 2.61718,1.42188 2.01158,0 0.77691,-1.64662 -1.7246,-2.30078 -0.6382,-0.16689 -1.05885,-0.24862 -1.28516,-0.22461 z m 562.57424,0.0254 -2.1231,2.20703 c -1.1679,1.2145 -2.123,2.48009 -2.123,2.81055 0,1.16012 2.0002,-0.65282 3.1172,-2.82422 z m -960.25002,5.70117 c -0.36094,0.0192 -0.72791,0.13224 -1.08594,0.35351 -1.05299,0.65079 -1.22834,4.79316 -0.24414,5.77735 0.36666,0.36667 1.49166,0.66797 2.5,0.66797 1.22846,0 1.73204,-0.63124 1.81641,-2.33985 -0.18892,-0.94986 -0.36459,-1.90115 -0.53907,-2.85351 -0.56101,-1.02989 -1.47968,-1.65695 -2.44726,-1.60547 z m 408.72656,0.84961 c -0.47798,0 -0.61375,0.31642 -0.22266,0.94922 0.33992,0.55 1.37856,0.99237 2.3086,0.98437 1.45727,-0.0132 1.48409,-0.14897 0.1914,-0.98437 -0.97918,-0.6328 -1.79936,-0.94922 -2.27734,-0.94922 z m 545.27736,0.94922 c -0.55,0 -1,0.39375 -1,0.875 0,0.48125 -0.2523,2.39375 -0.5606,4.25 l -0.5605,3.375 1.5254,-2.5 c 1.7517,-2.87144 2.0622,-6 0.5957,-6 z m -524.26564,2 c -1.46983,0 -3.73438,1.93998 -3.73438,3.19922 0,1.62443 2.96436,0.7359 4,-1.19922 0.82195,-1.53583 0.75969,-2 -0.26562,-2 z m 3.83984,1 c -1.33451,0 0.64995,2.14751 2.77735,3.00586 2.81252,1.13479 5.64843,1.21163 5.64843,0.15234 0,-0.7295 -6.47977,-3.1582 -8.42578,-3.1582 z m -1.54492,3.52929 c -0.63935,0.029 -1.0293,0.16462 -1.0293,0.42579 0,0.49799 1.0125,1.09953 2.25,1.33789 1.2375,0.23835 3.6,0.46781 5.25,0.50781 2.45085,0.0595 2.6339,-0.0711 1,-0.71289 -2.23409,-0.8776 -4.99673,-1.4637 -6.7539,-1.55274 -0.26358,-0.0134 -0.50368,-0.0125 -0.7168,-0.006 z m 12.88672,0.59375 c -0.3474,-0.0143 -0.74258,0.0489 -1.10352,0.19336 -0.79773,0.31922 -0.56143,0.55552 0.60352,0.60352 1.05416,0.0434 1.64479,-0.1931 1.3125,-0.52539 -0.16614,-0.16613 -0.4651,-0.25718 -0.8125,-0.27149 z m -2.30859,1.87696 c -0.21616,0 -0.65216,0.675 -0.96875,1.5 -0.31658,0.825 -0.14016,1.5 0.39257,1.5 0.53274,0 0.96875,-0.675 0.96875,-1.5 0,-0.825 -0.17642,-1.5 -0.39257,-1.5 z m 2.45117,0 c -0.58246,0 -1.0586,0.45 -1.0586,1 0,0.55 0.19887,1 0.44141,1 0.24254,0 0.71867,-0.45 1.05859,-1 0.33992,-0.55 0.14106,-1 -0.4414,-1 z m 21.55273,4.34375 c -0.35859,-0.0603 -0.61133,0.16081 -0.61133,0.59765 0,0.58246 0.45,1.0586 1,1.0586 0.55,0 1,-0.19887 1,-0.44141 0,-0.24254 -0.45,-0.71867 -1,-1.05859 -0.1375,-0.085 -0.26914,-0.13616 -0.38867,-0.15625 z m 36.69141,11.01172 c -0.65865,0.008 -1.2348,0.1117 -1.59961,0.34179 -0.76495,0.48247 -0.10914,0.99731 1.79687,1.41211 4.434,0.96504 4.5,0.96661 4.5,-0.002 0,-0.93542 -2.72131,-1.77708 -4.69726,-1.75195 z m -5.09961,1.63476 c -0.31563,0.008 -0.12809,0.34545 0.48828,1.10547 1.34214,1.65493 5.30859,2.28376 5.30859,0.8418 0,-0.51582 -0.63795,-0.9375 -1.41796,-0.9375 -0.78002,0 -2.24252,-0.30952 -3.25,-0.6875 -0.56822,-0.21318 -0.93953,-0.3269 -1.12891,-0.32227 z m -497.20508,8.19531 c -0.30601,-0.0241 -0.51965,-1.8e-4 -0.60742,0.0879 -0.7312,0.7312 3.27841,2.87235 7.10937,3.79688 1.65,0.39819 3.13864,0.76987 3.3086,0.82617 0.16996,0.0563 0.0534,-0.31168 -0.25977,-0.81836 -0.67914,-1.09886 -7.4087,-3.72363 -9.55078,-3.89258 z m -0.49219,2.45118 c -0.31894,-0.0106 -0.50586,0.078 -0.50586,0.27734 0,1.28204 1.65693,2.24485 5.41211,3.14258 4.4342,1.06008 4.77546,1.05463 4.08789,-0.0566 -0.33992,-0.55 -1.28951,-1 -2.10937,-1 -0.81985,0 -2.81872,-0.68627 -4.44141,-1.52539 -1.01418,-0.52445 -1.91178,-0.82024 -2.44336,-0.83789 z m 35.08985,8.40429 c -0.5258,0.0201 0.27362,0.70542 1.75195,1.57617 0.0141,-0.37072 0.0177,-0.72839 0.0293,-1.0957 -0.79357,-0.29788 -1.45547,-0.49292 -1.78125,-0.48047 z m 565.32031,9.08203 c -0.3474,-0.0143 -0.74258,0.0489 -1.10352,0.19336 -0.79773,0.31922 -0.56143,0.55552 0.60352,0.60352 1.05416,0.0434 1.64479,-0.19115 1.3125,-0.52344 -0.16615,-0.16612 -0.4651,-0.25913 -0.8125,-0.27344 z m -11.03711,0.004 c -0.54375,-0.007 -1.12484,0.0529 -1.61133,0.17969 -0.97297,0.25354 -0.41758,0.47764 1.23242,0.49804 1.65,0.0204 2.44461,-0.187 1.76758,-0.46093 -0.33851,-0.13699 -0.84492,-0.21008 -1.38867,-0.2168 z m 43.00191,8.87305 c -0.55,0 -0.7207,0.45 -0.3808,1 0.3399,0.55 1.0672,1 1.6172,1 0.55,0 0.7227,-0.45 0.3828,-1 -0.3399,-0.55 -1.0692,-1 -1.6192,-1 z m -8.9648,1.12304 c -0.3474,-0.0143 -0.7426,0.0489 -1.1035,0.19336 -0.7977,0.31922 -0.5615,0.55552 0.6035,0.60352 1.0541,0.0434 1.6448,-0.1931 1.3125,-0.52539 -0.1661,-0.16613 -0.4651,-0.25718 -0.8125,-0.27149 z m -351.35742,4.87696 c -0.24254,0 -0.71868,0.45 -1.0586,1 -0.33992,0.55 -0.14105,1 0.44141,1 0.58246,0 1.05859,-0.45 1.05859,-1 0,-0.55 -0.19886,-1 -0.4414,-1 z m 402.32222,7 c -0.55,0 -0.7207,0.45 -0.3808,1 0.3399,0.55 1.0672,1 1.6172,1 0.55,0 0.7227,-0.45 0.3828,-1 -0.3399,-0.55 -1.0692,-1 -1.6192,-1 z m -0.9668,2.50781 c -0.6164,-0.0563 -1.1975,0.14067 -1.4414,0.53516 -0.3251,0.52598 0.3363,0.95703 1.4688,0.95703 2.4145,0 2.6569,-0.55638 0.5898,-1.34961 -0.2018,-0.0775 -0.4117,-0.12381 -0.6172,-0.14258 z m -547.60933,1.33203 c -5.61054,-0.0236 -7.81368,2.72086 -2.05469,3.43555 6.58856,0.81764 7.384,0.78058 5.75,-0.27539 -1.19319,-0.7711 -0.99965,-0.97218 0.94922,-0.98438 3.96059,-0.0248 1.02583,-1.82424 -3.47851,-2.13281 -0.40296,-0.0276 -0.79198,-0.0414 -1.16602,-0.043 z m -0.42578,1.28711 c 0.54375,0.007 1.05016,0.0798 1.38867,0.2168 0.67703,0.27393 -0.11758,0.48133 -1.76758,0.46093 -1.65,-0.0204 -2.20539,-0.2445 -1.23242,-0.49804 0.48649,-0.12675 1.06758,-0.18641 1.61133,-0.17969 z m -43.04297,1.50977 c -0.23512,-0.009 -0.45709,-0.007 -0.66601,0.002 -2.14897,0.0959 -2.97318,1.16208 -3.6836,3.40039 -0.32445,1.02226 -1.16822,1.63525 -1.87695,1.36328 -1.42363,-0.5463 -4.26147,2.27954 -3.27734,3.26367 0.34009,0.34008 1.3789,-0.008 2.30664,-0.77343 1.9824,-1.63658 1.92963,-1.49162 -2.77149,7.60742 -10.14525,19.6362 -17.70248,44.88034 -21.47851,71.75 -0.36714,2.6125 -1.05591,4.75 -1.5293,4.75 -0.47339,0 -0.85938,1.37613 -0.85938,3.05859 0,1.68246 0.36331,2.8338 0.8086,2.55859 0.4453,-0.27521 0.76383,7.91117 0.70703,18.19141 -0.0568,10.28025 0.30095,20.26641 0.79492,22.19141 0.49397,1.925 1.55778,7.55 2.36328,12.5 4.08105,25.07899 15.09894,70.36608 22.01758,90.5 0.85049,2.475 1.89635,5.85 2.32617,7.5 1.03331,3.96667 16.69267,49.43175 17.91016,52 0.52146,1.1 1.95033,5.15 3.17383,9 1.22351,3.85 2.7698,7.675 3.43554,8.5 0.66575,0.825 1.77558,3.3 2.4668,5.5 0.69121,2.2 1.60055,4.45 2.02149,5 0.4209,0.55 1.9744,3.925 3.45117,7.5 7.12987,17.2601 25.4222,55.22999 34.44726,71.5 2.74579,4.95 5.75547,10.575 6.6875,12.5 1.607,3.31904 9.15777,16.3841 12.38867,21.4375 0.825,1.2904 2.97415,4.7563 4.7754,7.7031 3.83307,6.2708 14.97009,22.4725 25.07617,36.4766 3.92189,5.4346 10.05262,13.9328 13.62304,18.8828 22.36565,31.0076 30.75081,42.0564 52.41407,69.0684 25.73975,32.0951 39.32897,48.4316 40.28906,48.4316 0.45169,0 0.82226,0.45 0.82226,1 0,0.55 -0.64886,1 -1.4414,1 -0.79254,0 -1.71868,0.45 -2.0586,1 -0.33992,0.55 0.0559,1 0.88086,1 0.825,0 1.79707,-0.4809 2.16016,-1.0684 0.3631,-0.5875 1.36669,-0.7976 2.22852,-0.4668 0.86183,0.3307 5.6534,-0.2803 10.64843,-1.3574 20.544,-4.4297 23.71826,-4.6049 85.58203,-4.7051 32.725,-0.053 70.05879,-0.5821 82.96485,-1.1757 12.90606,-0.5933 23.86824,-0.8302 24.36133,-0.5254 1.41224,0.8728 21.07837,2.4268 33.17382,2.6211 11.35061,0.1824 13.5,-0.4434 13.5,-3.9278 0,-3.9621 7.18834,-16.1173 12.9629,-21.9179 4.65372,-4.6749 6.1662,-6.9657 6.9375,-10.5137 0.54245,-2.4953 1.44018,-5.7305 1.99414,-7.1875 1.5702,-4.1299 21.52503,-24.6105 26.6875,-27.3906 1.74834,-0.9416 3.92419,-2.9716 4.83398,-4.5118 0.9099,-1.5402 2.2185,-3.3803 2.9062,-4.0878 0.6889,-0.7075 2.2717,-2.9515 3.5176,-4.9883 1.2459,-2.0368 7.3143,-10.0261 13.4864,-17.7539 6.172,-7.7277 12.0477,-15.7364 13.0586,-17.7969 1.0099,-2.0605 2.2648,-4.5745 2.789,-5.5859 1.4346,-2.7679 1.1793,-8.6319 -0.5898,-13.5274 -2.4786,-6.8589 -1.8199,-16.5876 1.498,-22.1152 2.7879,-4.6444 4.7175,-11.6316 2.9024,-10.5098 -0.5417,0.3348 -0.9844,1.2798 -0.9844,2.0996 0,0.8198 -1.575,3.1136 -3.5,5.0957 -3.438,3.5403 -3.5,3.7512 -3.5,12.0352 0,4.6887 0.7369,11.1994 1.6601,14.664 l 1.6602,6.2305 -2.7871,7.1055 c -1.5332,3.9078 -4.8954,9.7281 -7.4707,12.9336 -2.5752,3.2055 -8.9255,11.4531 -14.1113,18.3281 -9.9709,13.2187 -14.85953,18.4559 -29.58208,31.6992 -10.4972,9.4426 -14.68986,15.2202 -16.39062,22.582 -0.97435,4.2175 -2.32349,6.3686 -7.03516,11.2188 -6.12046,6.3004 -11.42021,15.1895 -12.50586,20.9766 -0.59636,3.1788 -0.98148,3.482 -5.25586,4.123 -4.2693,0.6402 -20.42408,0.04 -39.68164,-1.4727 -8.88551,-0.698 -41.79274,0.2918 -53.60546,1.6114 -4.19433,0.4686 -18.54546,0.4736 -32,-0.016 -48.05913,-1.7033 -94.13103,0.2644 -110.82032,4.7343 l -5.42578,1.4532 -5.57422,-6.1036 c -6.33359,-6.9366 -8.52884,-9.612 -34.07422,-41.5078 -24.06813,-30.0512 -35.92869,-45.5053 -50,-65.1523 -2.475,-3.4557 -7.77879,-10.7583 -11.78515,-16.2285 -12.6276,-17.2413 -35.52517,-51.2988 -40.95703,-60.918 -1.08703,-1.925 -4.57873,-7.99391 -7.75782,-13.48438 -13.03448,-22.51132 -31.58527,-60.46974 -43.99218,-90.01562 -2.07861,-4.95 -5.02578,-11.925 -6.54883,-15.5 -4.05951,-9.52877 -11.1536,-29.36573 -20.02735,-56 -14.64758,-43.96475 -22.57319,-74.30261 -27.95312,-107 -2.66185,-16.17787 -3.8688,-54.67552 -2.04688,-65.30469 2.42395,-14.1409 8.17975,-37.8993 11.20704,-46.26563 4.30959,-11.91012 16.60213,-36.42968 18.26367,-36.42968 0.75524,0 5.36035,1.16531 10.23437,2.58984 8.99896,2.63011 16.07514,2.82099 30.05664,0.8125 2.30691,-0.33139 7.27638,-0.0826 11.04297,0.55274 l 6.84961,1.15429 -0.40234,3.44336 c -0.57882,4.95801 0.41584,7.92112 4.04687,12.05664 4.33357,4.93567 8.62745,6.58467 31.05274,11.92188 38.57219,9.18017 41.08188,10.07846 56.71679,20.30078 12.62504,8.25443 19.9215,14.32006 38.08204,31.66211 21.65533,20.67935 29.15201,26.6075 41.29492,32.65625 5.56734,2.77326 12.65019,7.00709 15.74023,9.4082 6.3502,4.93442 15.67701,8.40845 29.13281,10.85156 4.8125,0.87379 12.6875,2.31576 17.5,3.20313 4.8125,0.88737 13.99765,3.5641 20.41211,5.94922 21.06148,7.8314 21.59007,7.91966 48.33789,8.00976 23.53005,0.0792 24.12239,0.13138 30.28321,2.69727 12.02058,5.0064 31.30845,18.01124 46.47851,31.33789 16.35972,14.37176 16.94982,14.65548 88.5215,42.64453 9.9757,3.90112 9.6183,3.06738 11.207,26.24805 0.603,8.8 1.7342,18.7 2.5137,22 2.6264,11.11926 11.0048,35.04815 14.8359,42.375 1.3363,2.55571 2.8921,7.61499 3.4571,11.24414 0.565,3.62915 2.2269,8.96548 3.6933,11.85937 l 2.666,5.26172 -1.8281,7.12891 c -1.4748,5.75133 -1.813,10.80286 -1.75,26.13086 0.071,17.18035 0.296,19.57462 2.3399,25 1.4002,3.71687 2.4671,9.29654 2.8046,14.66406 0.5367,8.53304 0.4899,8.76284 -3.0625,15.11524 -1.984,3.5476 -4.0583,7.7472 -4.6093,9.334 -1.1351,3.2693 -1.56,3.8305 6.3672,-8.377 l 4.9179,-7.5742 -1.289,-10.58202 c -0.7082,-5.81999 -2.1845,-12.83008 -3.2813,-15.58008 -3.1812,-7.97656 -3.4781,-28.61931 -0.6289,-43.66992 l 2.209,-11.66797 -2.8613,-6.33203 c -1.7077,-3.77932 -3.0385,-8.7065 -3.3028,-12.22461 -0.3232,-4.30271 -1.2663,-7.2154 -3.4902,-10.79297 -1.7684,-2.84484 -3.0748,-6.34887 -3.1192,-8.35352 -0.043,-2.05508 -0.5783,-3.45503 -1.3222,-3.45703 -0.7725,-0.002 -1.25,-1.40506 -1.25,-3.67383 0,-2.01919 -0.6369,-4.38169 -1.4141,-5.25 -1.8647,-2.08339 -5.3288,-11.66562 -7.7656,-21.47656 -1.5436,-6.21503 -1.6938,-8.06281 -0.7051,-8.67383 0.8951,-0.55322 0.9548,-1.15661 0.207,-2.10156 -0.5768,-0.72942 -1.3568,-4.92617 -1.7324,-9.32617 -1.551,-18.17289 -4.1952,-34.88763 -4.4746,-28.28125 -0.1209,2.858 -1.7824,2.94609 -5.1152,0.27343 -0.825,-0.66158 -8.47502,-3.79788 -17.00002,-6.9707 -12.90746,-4.80387 -29.12103,-11.39249 -52.25781,-21.23437 -6.29139,-2.67622 -14.04099,-8.31253 -25.54101,-18.57422 -6.0317,-5.3822 -15.63205,-12.66334 -21.33399,-16.18164 -5.70195,-3.51831 -11.04979,-7.07074 -11.88281,-7.89258 -0.83301,-0.82183 -5.63103,-2.90773 -10.66406,-4.63672 -8.22393,-2.82501 -10.12274,-3.11235 -18.73828,-2.82422 -5.27269,0.17633 -9.58499,-0.031 -9.58399,-0.46289 10e-4,-0.43185 -0.98612,-0.25742 -2.19336,0.38867 -2.90434,1.55436 -21.23541,0.51095 -29.30469,-1.66797 -3.3,-0.89109 -11.4,-3.54184 -18,-5.89062 -16.91462,-6.01949 -21.91546,-7.54492 -24.71875,-7.54492 -1.34701,0 -2.75126,-0.304 -3.12109,-0.67383 -0.36983,-0.36983 -3.25657,-0.82046 -6.41602,-1.00195 -3.15931,-0.18149 -6.41914,-0.48067 -7.24414,-0.66602 -0.825,-0.18536 -3.1875,-0.68482 -5.25,-1.10938 -2.0625,-0.42453 -3.75,-1.19945 -3.75,-1.7207 0,-0.52125 -0.4218,-0.68665 -0.93554,-0.36914 -1.62753,1.00587 -9.3609,-2.65223 -15.19141,-7.18555 -3.09464,-2.40612 -9.16964,-5.92203 -13.5,-7.8125 -4.33036,-1.89046 -7.0112,-3.44221 -5.95703,-3.44921 2.69074,-0.0171 1.12836,-1.28427 -1.99414,-1.61719 -5.03914,-0.53725 -30.47666,-22.28773 -44.66992,-38.19531 -2.06107,-2.31002 -3.97791,-4.19922 -4.25977,-4.19922 -0.28186,0 -3.76988,-2.62563 -7.75195,-5.83399 -7.37919,-5.94541 -24.81557,-17.71705 -30.24024,-20.41601 -4.08025,-2.03006 -21.07198,-7.37606 -26,-8.17969 -2.2,-0.35877 -8.05,-1.70187 -13,-2.98633 -4.95,-1.28447 -12.375,-3.12099 -16.5,-4.08008 -16.67885,-3.87795 -23.80259,-10.04031 -22.50586,-19.46875 0.60488,-4.3978 0.47641,-4.81349 -1.66992,-5.40429 -5.7537,-1.58377 -17.4227,-1.86183 -25.48632,-0.60743 -9.08954,1.41399 -9.74241,1.34059 -26.17774,-2.94531 -3.36414,-0.87727 -5.67838,-1.37979 -7.32422,-1.4414 z m 379.04492,53.36328 c -0.55,0 -0.72078,0.45 -0.38086,1 0.33992,0.55 1.06719,1 1.61719,1 0.55,0 0.72273,-0.45 0.38281,-1 -0.33992,-0.55 -1.06914,-1 -1.61914,-1 z m 129.73047,23.34375 c -0.35859,-0.0603 -0.61133,0.16081 -0.61133,0.59765 0,0.58246 0.45,1.0586 1,1.0586 0.55,0 1,-0.19887 1,-0.44141 0,-0.24254 -0.45,-0.71867 -1,-1.05859 -0.1375,-0.085 -0.26914,-0.13616 -0.38867,-0.15625 z M 445.26758,659.4043 c 0.24254,0 0.4414,0.45 0.4414,1 0,0.55 -0.47613,1 -1.05859,1 -0.58246,0 -0.78133,-0.45 -0.44141,-1 0.33992,-0.55 0.81606,-1 1.0586,-1 z m 263.16015,0.19531 c -0.17333,0.0206 -0.41279,0.1148 -0.67578,0.27734 -0.52598,0.32507 -0.70247,1.25121 -0.39257,2.0586 0.30979,0.80738 1.01247,1.46875 1.5625,1.46875 0.54998,0 0.72837,-0.71204 0.39453,-1.58203 -0.33385,-0.86998 -0.60743,-1.79613 -0.60743,-2.0586 0,-0.13124 -0.10791,-0.18469 -0.28125,-0.16406 z m 1.48633,6.94141 c -0.13424,0.0562 -0.1834,0.42125 -0.18945,1.11328 -0.01,1.08844 0.74044,1.75 1.98437,1.75 1.1,0 2,-0.47614 2,-1.0586 0,-0.58246 -0.49983,-0.75096 -1.11132,-0.37304 -0.6115,0.37792 -1.50624,0.0666 -1.98633,-0.69141 -0.34518,-0.54497 -0.56302,-0.79644 -0.69727,-0.74023 z m 207.41211,5.86328 c -0.825,0 -1.77727,0.45 -2.11719,1 -0.33992,0.55 0.0559,1 0.88086,1 0.825,0 1.77922,-0.45 2.11914,-1 0.33992,-0.55 -0.0578,-1 -0.88281,-1 z m -181.96875,12.32422 c -0.1946,-0.003 -0.34543,0.0367 -0.43554,0.12695 -0.361,0.36101 0.007,1.07622 0.8164,1.58789 2.6449,1.67269 4.59422,1.08614 2.12891,-0.64063 -0.94346,-0.66084 -1.92596,-1.06554 -2.50977,-1.07421 z m 8.79297,4.67578 c -0.85748,0 -1.28133,0.45 -0.94141,1 0.33992,0.55 1.04106,1 1.5586,1 0.51754,0 0.9414,-0.45 0.9414,-1 0,-0.55 -0.70113,-1 -1.55859,-1 z m 6.33594,3.5625 c -0.9587,0.0769 -1.09459,0.78823 -0.11133,1.77148 0.97013,0.97014 3.33398,0.8164 3.33398,-0.2168 0,-0.48585 -0.9,-1.12054 -2,-1.4082 -0.49142,-0.12851 -0.90309,-0.17213 -1.22265,-0.14648 z m 546.22267,14.5664 c -0.4531,0 -0.9063,0.0703 -1.25,0.20899 -0.6875,0.27741 -0.125,0.5039 1.25,0.5039 1.375,0 1.9375,-0.22649 1.25,-0.5039 -0.3438,-0.13871 -0.7969,-0.20899 -1.25,-0.20899 z m -908.02931,3.14844 c 0.57955,36.22892 3.49389,56.45371 11.49219,84.65625 7.73676,27.28054 23.2374,71.76993 30.59179,87.80469 1.06936,2.33151 1.94531,4.50671 1.94531,4.83398 0,0.32728 2.66895,6.2955 5.93164,13.26172 14.22868,30.37748 47.82809,91.31747 62.16016,112.74222 14.177,21.1924 66.57509,86.6018 87.22461,108.8847 7.85674,8.4783 40.24585,45.4319 49.16016,56.0879 2.73774,3.2727 5.21884,6.1762 5.51367,6.4512 1.29861,1.2113 9.00976,10.8209 9.00976,11.2285 0,0.2486 -2.5556,1.024 -5.67773,1.7227 -8.0023,1.7908 -13.57564,4.3658 -22.95313,10.6054 -4.4832,2.983 -10.88583,6.7181 -14.22851,8.2989 -3.34268,1.5808 -5.75445,3.231 -5.35938,3.6679 0.39507,0.4368 -0.0434,0.5208 -0.97461,0.1875 -1.47311,-0.5274 -30.82974,8.566 -36.30664,11.2461 -1.1,0.5383 -6.725,2.8242 -12.5,5.0801 -20.26708,7.9169 -22.95009,9.8932 -50.80664,37.4063 -19.68861,19.4459 -33.20897,34.5419 -39.08203,43.6386 -4.37634,6.7784 -8.81984,10.4506 -20.50586,16.9492 -5.90242,3.2823 -10.91843,5.9688 -11.14843,5.9688 -0.23001,0 -3.01432,1.6499 -6.1875,3.668 -10.3365,6.5739 -20.61801,14.9611 -28.47461,23.2265 -4.23761,4.4581 -7.90285,8.1055 -8.14453,8.1055 -0.67321,0 -6.6504,5.7244 -6.6504,6.3691 0,0.3125 0.7875,0.2759 1.75,-0.088 1.49141,-0.559 1.55953,-0.4221 0.4629,0.9278 -0.70775,0.8712 -2.06507,1.3814 -3.01563,1.1328 -1.66869,-0.4364 -11.19727,6.0987 -11.19727,7.6797 0,1.7517 -6.96954,2.0449 -9.48242,0.3984 -1.69909,-1.1132 -6.01709,-1.9141 -13.08984,-2.4258 -8.77084,-0.6345 -10.93964,-1.1248 -12.83789,-2.9082 -3.97061,-3.7301 -12.40763,-6.4571 -20.58985,-6.6543 -4.125,-0.099 -11.55,-0.7529 -16.5,-1.4511 -4.95,-0.6983 -15.525,-1.5419 -23.5,-1.875 -7.975,-0.3332 -15.05264,-0.9646 -15.72851,-1.4024 -0.67588,-0.4377 -6.75088,-1.6814 -13.5,-2.7636 -6.74913,-1.0825 -15.35191,-2.6949 -19.11524,-3.584 -11.77746,-2.7825 -19.61083,-0.6166 -36.63281,10.1289 -2.06493,1.3035 -7.44274,3.3816 -11.95117,4.6172 -5.72375,1.5686 -8.85735,3.0136 -10.38477,4.789 -1.20311,1.3985 -4.64017,4.8079 -7.63671,7.5762 -2.99654,2.7683 -7.32625,6.9457 -9.6211,9.2832 -2.29485,2.3375 -4.83236,4.25 -5.64062,4.25 -0.80826,0 -4.25852,1.393 -7.66602,3.0957 -4.64151,2.3194 -7.70823,4.8903 -12.22656,10.25 -3.31706,3.9348 -9.2621,10.701 -13.21289,15.0371 -3.95079,4.336 -9.06899,11.1265 -11.37305,15.0879 -3.284014,5.6463 -5.444729,8.04 -9.999999,11.084 -11.08686,7.4087 -14.352232,10.6294 -20.820312,20.5332 -3.57031,5.4668 -6.490235,10.1582 -6.490235,10.4258 0,0.2675 0.5625,0.4785 1.25,0.4785 0.6875,0 4.324652,-4.81 8.082032,-10.6777 5.3227,-8.3126 7.05469,-10.354 7.84375,-9.2422 0.81096,1.1427 0.899665,1.0773 0.447265,-0.3282 -0.41206,-1.2803 0.5779,-2.4766 3.65625,-4.4199 13.9314,-8.7948 12.827453,-7.7557 18.417969,-17.3242 2.08874,-3.575 5.90787,-8.633 8.48828,-11.2383 2.58041,-2.6053 7.81387,-8.4553 11.62891,-13 9.8819,-11.7719 15.39846,-16.0464 22.06836,-17.0976 1.9044,-0.3001 5.1072,-2.5233 8.73828,-6.0684 3.15233,-3.0778 6.12441,-5.5957 6.60351,-5.5957 0.4791,0 1.90586,-1.1184 3.17188,-2.4844 1.26601,-1.3661 2.5954,-2.2661 2.95312,-2 0.35772,0.266 0.43605,0.1957 0.17579,-0.1562 -0.26029,-0.3519 0.82628,-2.2804 2.41406,-4.2852 2.27889,-2.8773 4.22274,-4.0199 9.22461,-5.4258 3.48499,-0.9796 7.81298,-2.426 9.61914,-3.2148 1.80616,-0.7887 3.8746,-1.4336 4.5957,-1.4336 0.7211,0 2.1671,-0.9491 3.21484,-2.1074 1.04775,-1.1582 5.73125,-3.8902 10.40625,-6.0723 9.14406,-4.2681 12.67068,-4.4809 20.9629,-1.2617 1.94558,0.7553 6.0121,1.584 9.0371,1.8398 12.22525,1.034 17.6043,1.9022 19.64258,3.1719 1.41098,0.8789 7.35452,1.5358 17.41602,1.9258 8.40141,0.3257 15.69978,0.8551 16.21875,1.1758 0.51897,0.3207 4.57505,0.7432 9.01367,0.9394 4.98451,0.2202 8.36352,0.8295 8.83594,1.5938 0.60584,0.9805 1.71366,0.971 5.33203,0.016 6.16235,-1.6482 7.16041,-1.5625 10.48633,0.8965 1.57545,1.1647 3.30573,1.8454 3.8457,1.5117 0.53996,-0.3337 1.53713,0.062 2.2168,0.8809 0.67966,0.819 1.88377,1.4902 2.67382,1.4902 0.79017,0 1.19008,0.399 0.88868,0.8867 -1.15257,1.8649 2.27818,2.903 11.92578,3.6074 5.49817,0.4014 12.02317,1.5202 14.5,2.4864 2.85298,1.1129 5.23685,1.4646 6.5039,0.959 3.10223,-1.2383 3.85484,-1.0743 2.50782,0.5488 -0.67967,0.8185 -1.70272,1.1996 -2.27539,0.8457 -0.59645,-0.3686 -0.74366,-0.1607 -0.34375,0.4863 0.59138,0.9569 -1.88859,4.2091 -9.13868,11.9824 -0.6875,0.7371 -1.25,1.5319 -1.25,1.7676 0,1.3846 2.1875,-0.4307 9.11914,-7.5703 4.27184,-4.4 8.50822,-8 9.41407,-8 1.87924,0 9.41301,-5.0647 9.44531,-6.3496 0.0117,-0.4668 1.25898,-2.0861 2.77148,-3.5996 4.48027,-4.4833 11.60216,-13.0315 13.75,-16.5039 4.29562,-6.9448 21.45829,-20.0258 36.90625,-28.1289 16.44196,-8.6245 20.16031,-10.7694 23.07813,-13.3145 l 2.98437,-2.6035 -1.95507,2.5 c -1.07529,1.375 -3.05537,3.5989 -4.40039,4.9434 -1.76927,1.7686 -2.07512,2.5693 -1.10547,2.8925 1.43166,0.4773 9.03793,-7.6584 8.72851,-9.3359 -0.53508,-2.9008 16.63336,-25.4751 19.39063,-25.4961 2.41721,-0.018 27.19732,-25.2578 28.74804,-29.2812 1.06042,-2.7512 -3.14699,0.8064 -9.375,7.9277 -7.62739,8.7214 -16.26031,16.9213 -17.01757,16.1641 -0.74123,-0.7413 34.19802,-35.4729 41.73828,-41.4903 6.60355,-5.2698 17.45798,-11.2572 27.80078,-15.334 2.88122,-1.1356 5.37157,-1.9292 5.53515,-1.7656 0.16364,0.1636 -2.3602,1.8385 -5.60937,3.7227 -3.24917,1.8841 -5.73796,3.5939 -5.53125,3.8007 0.20672,0.2067 4.46263,-1.6762 9.45898,-4.1855 4.99636,-2.5093 9.69277,-4.5625 10.43555,-4.5625 0.74278,0 3.56382,-1.1234 6.26953,-2.4961 2.70571,-1.3727 5.45629,-2.5 6.11133,-2.5 0.65504,0 1.44178,-0.4115 1.75,-0.9102 0.30822,-0.4988 -0.45315,-0.7153 -1.69141,-0.4804 -1.23826,0.2348 -0.45,-0.2585 1.75,-1.0957 2.2,-0.8372 4.9,-1.9044 6,-2.3711 2.97068,-1.2603 8.72322,-3.2507 11,-3.8067 1.97307,-0.4819 1.97356,-0.467 0.0586,1.086 -2.15194,1.7452 -1.48614,2.0939 1.20508,0.6308 4.84938,-2.6364 18.33825,-10.6849 22.78125,-13.5918 7.58126,-4.9602 17.31498,-9.1231 23.23047,-9.9355 6.39638,-0.8785 8.94481,-2.8928 7.01953,-5.5488 -2.05684,-2.8375 -16.55246,-19.8012 -25.29493,-29.6016 -4.4,-4.9325 -12.5,-14.0942 -18,-20.3613 -5.5,-6.2671 -16.3,-18.4304 -24,-27.0293 -20.02046,-22.3578 -34.20172,-39.7178 -64.5,-78.9571 -19.43232,-25.1669 -28.63731,-39.2102 -42.95117,-65.5312 -1.7946,-3.3 -3.60065,-6.45 -4.01367,-7 -0.41301,-0.55 -2.47024,-4.375 -4.57226,-8.5 -2.10204,-4.125 -4.35355,-8.175 -5.00391,-9 -5.61778,-7.12631 -35.45899,-69.31708 -35.45899,-73.89844 0,-1.15642 -0.3375,-2.10347 -0.75,-2.10547 -0.4125,-0.002 -1.49025,-1.91456 -2.39453,-4.25 -0.90428,-2.33544 -2.81678,-7.28952 -4.25,-11.00781 -1.43322,-3.71829 -2.60547,-7.56462 -2.60547,-8.54883 0,-0.98421 -0.39442,-2.21773 -0.87695,-2.74023 -1.56235,-1.69177 -5.41706,-12.86928 -5.41406,-15.69922 0.002,-1.5125 -0.32647,-2.75 -0.73047,-2.75 -1.18361,0 -7.6541,-19.60827 -13.36328,-40.5 -3.5685,-13.05826 -6.96639,-32.50585 -8.5625,-49 -0.3867,-3.99606 -0.68277,-9.85053 -0.89453,-16.39063 -0.6213,-1.74103 -1.1322,-3.52005 -1.45313,-5.36133 -0.34126,-2.14431 -0.63822,-4.30753 -0.73437,-6.4707 z m 534.9707,48.72266 c -0.58246,0 -0.78133,0.45 -0.44141,1 0.33992,0.55 0.81606,1 1.0586,1 0.24254,0 0.4414,-0.45 0.4414,-1 0,-0.55 -0.47613,-1 -1.05859,-1 z m -523.92383,8.35156 c 0.009,0.30027 0.0399,0.59739 0.10547,0.87695 -0.0341,-0.2923 -0.0733,-0.58456 -0.10547,-0.87695 z m 1147.66604,5.64844 c -2.0602,0 -2.1852,3.62411 -0.5488,15.94726 2.278,17.16266 2.0678,16.84698 21.8652,32.80664 10.4676,8.43847 14.1739,12.01122 24.373,23.50196 3.7799,4.25864 7.1803,7.74414 7.5586,7.74414 0.3783,0 3.3885,-1.05872 6.6875,-2.35157 3.2989,-1.29284 9.1216,-2.89994 12.9395,-3.57226 22.1167,-3.89474 26.2912,-4.92659 34.9414,-8.64258 2.5272,-1.08564 8.0454,-1.94248 14.9883,-2.32617 14.4652,-0.7994 14.5838,-1.54306 1.8066,-11.31445 -12.5257,-9.5791 -23.4803,-16.33555 -37.5703,-23.17188 -9.108,-4.4191 -13.111,-5.7543 -21.2246,-7.07812 -17.7136,-2.89016 -26.383,-5.52086 -39.4453,-11.9668 -11.5594,-5.70427 -22.2241,-9.57617 -26.3711,-9.57617 z m 1.1679,3.04101 c 2.4369,-0.1982 15.7482,4.8695 25.7969,9.9043 10.5255,5.2737 13.653,6.32077 26.8809,9.00195 8.2332,1.66881 15.9801,3.03797 17.2148,3.04297 2.7179,0.0105 27.3515,12.14768 35.8946,17.68555 3.3763,2.18858 10.0438,6.87015 14.8183,10.40234 l 8.6817,6.42188 -4.3204,0.67578 c -2.3757,0.37173 -6.1331,0.7092 -8.3496,0.75 -2.2165,0.0408 -10.7489,2.08976 -18.9629,4.55469 -8.214,2.46494 -18.5512,4.97312 -22.9707,5.57226 -4.4195,0.59914 -11.3075,2.18165 -15.3066,3.51758 -3.999,1.33592 -7.3787,2.42969 -7.5098,2.42969 -0.1311,0 -0.7303,-0.7875 -1.332,-1.75 -3.7031,-5.92349 -14.7608,-17.12756 -26.8867,-27.24219 -18.4662,-15.40321 -20.135,-17.04649 -20.8692,-20.54102 -1.1268,-5.36305 -3.5082,-23.92338 -3.1191,-24.3125 0.062,-0.0616 0.1774,-0.10006 0.3398,-0.11328 z M 415.15625,814.4668 c -0.0958,0.38258 -0.0813,0.72155 0.0703,0.96679 0.23221,0.37574 0.42802,0.58644 0.61719,0.65039 -0.13903,-0.37144 -0.2852,-0.74085 -0.44531,-1.10546 -0.078,-0.17213 -0.16294,-0.3403 -0.24219,-0.51172 z m 7.17969,28.21289 c -0.13278,-0.0174 -0.25353,0.0171 -0.35156,0.11523 -0.2412,0.24118 0.12383,1.48835 0.81054,2.77149 0.79004,1.47619 1.4056,1.86131 1.67578,1.05078 0.0232,-0.0695 0.0179,-0.15872 0.0273,-0.23828 -0.40621,-0.94806 -0.77414,-1.90428 -1.11328,-2.86914 -0.35853,-0.45428 -0.73944,-0.78945 -1.04883,-0.83008 z M 1829.2676,853.4043 c -0.2425,0 -0.7187,0.45 -1.0586,1 -0.3399,0.55 -0.1411,1 0.4414,1 0.5824,0 1.0586,-0.45 1.0586,-1 0,-0.55 -0.1988,-1 -0.4414,-1 z M 440.07617,879.82812 c -0.14864,0.0575 -0.26194,0.4974 -0.28906,1.24219 -0.0434,1.19166 0.48437,2.36863 1.17187,2.61524 0.41184,0.14773 0.76177,0.20725 1.07422,0.21093 -0.18749,-0.6091 -0.36518,-1.22257 -0.52343,-1.84179 -0.0886,-0.28161 -0.18339,-0.56074 -0.27344,-0.8418 -0.3446,-0.21831 -0.68118,-0.60245 -0.86524,-1.05859 -0.10402,-0.25782 -0.20573,-0.36068 -0.29492,-0.32618 z m 615.08203,4.81055 c -0.2887,0.024 -0.3368,0.60126 0.023,1.89063 0.3776,1.30638 0.9069,3.16818 1.1778,4.13867 0.271,0.97049 0.8837,1.52365 1.3613,1.22851 0.479,-0.29607 0.4032,-1.87162 -0.1699,-3.51562 -0.7971,-2.28643 -1.9114,-3.78217 -2.3926,-3.74219 z m -602.18945,28.18555 c -0.16737,0.031 -0.25977,0.1662 -0.25977,0.4082 0,0.59001 0.77777,1.50699 1.72852,2.03906 0.46061,0.25778 0.85063,0.40813 1.20508,0.50196 -0.46986,-0.76567 -0.93271,-1.53615 -1.37891,-2.31446 -0.57183,-0.4578 -1.03086,-0.68359 -1.29492,-0.63476 z M 1816.209,981.43555 c -0.55,0 -1.675,0.43559 -2.5,0.96875 -0.825,0.53316 -1.05,0.96875 -0.5,0.96875 0.55,0 1.675,-0.43559 2.5,-0.96875 0.825,-0.53316 1.05,-0.96875 0.5,-0.96875 z m -731.0332,0.42968 c -0.1809,-0.0674 -0.3086,0.50782 -0.3086,1.53907 0,1.375 0.2265,1.9375 0.5039,1.25 0.2774,-0.6875 0.2774,-1.8125 0,-2.5 -0.069,-0.17188 -0.135,-0.2666 -0.1953,-0.28907 z m 9.5918,7.53907 c -0.5824,0 -1.0586,0.45 -1.0586,1 0,0.55 0.1988,1 0.4414,1 0.2425,0 0.7187,-0.45 1.0586,-1 0.3399,-0.55 0.1411,-1 -0.4414,-1 z m -51.3125,18.4043 c -0.2679,-0.043 -0.7232,0.1617 -1.2461,0.5957 -0.825,0.6847 -1.5,1.6941 -1.5,2.2441 0,0.5578 0.6633,0.4503 1.5,-0.2441 0.825,-0.6847 1.5,-1.6961 1.5,-2.2461 0,-0.2092 -0.093,-0.3236 -0.2539,-0.3496 z m -526.72658,10.3887 c 0.0838,1.0647 0.52728,2.2592 1.23046,2.5429 0.12754,0.052 0.22478,0.085 0.33985,0.1289 -0.0501,-0.1051 -0.10245,-0.2091 -0.15235,-0.3144 -0.45239,-0.7982 -0.93133,-1.5802 -1.41796,-2.3574 z m 3.0625,5.7246 c -0.0442,0.051 -0.0684,0.1226 -0.0664,0.2226 0.0182,0.901 1.31551,2.9612 1.79297,3.1016 -0.58784,-1.1016 -1.16579,-2.2081 -1.72656,-3.3242 z m 9.75586,15.8633 c 0.2413,0.6638 0.50586,1.0222 0.77148,0.9707 -0.25916,-0.322 -0.51678,-0.6453 -0.77148,-0.9707 z m 509.56252,4.0175 c -0.1448,0.012 -0.3184,0.127 -0.5274,0.336 -0.6365,0.6365 -0.8453,2.2456 -0.4804,3.6992 0.9196,3.6643 1.6074,3.1819 1.6074,-1.127 0,-2.0581 -0.1652,-2.9452 -0.5996,-2.9082 z m -490.94729,16.0059 c -0.0971,0.1684 -0.0936,0.3763 0.0469,0.6035 0.15375,0.2488 0.38559,0.471 0.63672,0.6465 -0.10205,-0.2054 -0.19973,-0.4126 -0.30859,-0.6152 -0.1212,-0.2137 -0.25189,-0.4222 -0.375,-0.6348 z m 477.17769,19.9297 v 0 c -0.6833,0.2029 -3.8177,4.4092 -6.9218,9.3282 -0.5412,0.8576 -0.3189,1.0714 0.707,0.6777 1.5996,-0.6138 7.0607,-9.2498 6.3184,-9.9922 -0.023,-0.023 -0.058,-0.03 -0.1036,-0.016 z m 0.9356,7.9472 v 0 c -1.1318,0.44 -6.5664,7.6159 -6.5664,8.8027 0,0.4418 0.3375,0.7856 0.75,0.7656 1.0286,-0.05 6.5958,-8.9491 5.9824,-9.5625 -0.034,-0.034 -0.091,-0.035 -0.166,-0.01 z m -441.44532,16.6583 c 0.16338,0.6106 0.38021,1.2897 0.70312,2.0585 1.42185,3.3851 3.17578,5.3047 3.17578,3.4766 0,-0.675 -0.55008,-2.1072 -1.23828,-3.5391 -0.83185,-0.7278 -1.72761,-1.3716 -2.64062,-1.996 z m 430.01172,3.9335 -2.4824,1.627 c -1.3656,0.8948 -2.7228,2.2536 -3.0156,3.0176 -0.862,2.2464 2.0478,0.6223 3.871,-2.1602 z M 590,1109.918 c -0.0918,0 -0.16544,0.027 -0.2168,0.078 -0.24093,0.2409 1.10064,2.0253 2.98047,3.9648 0.89281,0.9212 1.68355,1.603 2.32031,2.0352 -0.2814,-0.3167 -0.55148,-0.6416 -0.83984,-0.9531 -1.33196,-1.6367 -2.58821,-3.3238 -3.82812,-5.0235 -0.15969,-0.061 -0.30539,-0.1035 -0.41602,-0.1015 z m 439.209,5.4863 c -0.825,0 -1.4649,0.7875 -1.4219,1.75 0.055,1.2201 0.2431,1.3372 0.6211,0.3867 0.4577,-1.1508 0.6772,-1.1508 1.4063,0 0.6759,1.0668 0.8669,0.9828 0.8789,-0.3867 0.01,-0.9625 -0.6594,-1.75 -1.4844,-1.75 z m -33.83009,3.1602 c -0.21748,0.045 -0.58641,0.4659 -1.20313,1.2812 -0.80751,1.0677 -1.4668,2.3589 -1.4668,2.8711 0,0.5122 0.675,0.3722 1.5,-0.3125 0.825,-0.6847 1.4843,-1.9779 1.4668,-2.8731 -0.0134,-0.6837 -0.0794,-1.0122 -0.29687,-0.9667 z m -352.38672,49.5136 c 0.18216,0.1997 0.43547,0.3262 0.71679,0.3262 h 0.004 c -0.24038,-0.1088 -0.47701,-0.2077 -0.7207,-0.3262 z m 281.71679,15.4551 c 0.45313,0 0.90625,0.068 1.25,0.207 0.6875,0.2774 0.125,0.5059 -1.25,0.5059 -1.375,0 -1.9375,-0.2285 -1.25,-0.5059 0.34375,-0.1387 0.79688,-0.207 1.25,-0.207 z m -78.08398,1.9941 c -0.3474,-0.014 -0.74258,0.049 -1.10352,0.1934 -0.79773,0.3192 -0.56143,0.5575 0.60352,0.6055 1.05416,0.043 1.64479,-0.1931 1.3125,-0.5254 -0.16615,-0.1662 -0.4651,-0.2591 -0.8125,-0.2735 z m -160.85742,5.877 c -0.58246,0 -1.0586,0.45 -1.0586,1 0,0.55 0.19887,1 0.44141,1 0.24254,0 0.71867,-0.45 1.05859,-1 0.33992,-0.55 0.14106,-1 -0.4414,-1 z m 51,24 c -0.51754,0 -1.21868,0.45 -1.5586,1 -0.33992,0.55 0.0839,1 0.94141,1 0.85746,0 1.55859,-0.45 1.55859,-1 0,-0.55 -0.42386,-1 -0.9414,-1 z m 2.55273,0.3437 c -0.35859,-0.06 -0.61133,0.1582 -0.61133,0.5958 0,0.5823 0.45,1.0605 1,1.0605 0.55,0 1,-0.1988 1,-0.4414 0,-0.2425 -0.45,-0.7187 -1,-1.0586 -0.1375,-0.085 -0.26914,-0.1362 -0.38867,-0.1563 z m -111.49414,5.6563 c -0.55,0 -1.27727,0.45 -1.61719,1 -0.24523,0.3968 -0.22117,0.7391 0.0156,0.9004 0.30853,-0.014 0.61734,-0.026 0.92578,-0.037 0.41352,-0.1711 0.82683,-0.4883 1.05859,-0.8633 0.33992,-0.55 0.16719,-1 -0.38281,-1 z m -52.54297,10.3555 c 0.0812,0.01 0.13977,0.024 0.17188,0.057 0.24167,0.2417 -0.92972,1.1481 -2.60352,2.0137 -3.03006,1.5669 -5.14258,2.0143 -5.14258,1.0879 0,-0.6743 6.35635,-3.2608 7.57422,-3.1582 z m -33.05273,16.9922 c -1.45614,0.1241 -9.97586,4.5183 -15.24609,7.9179 -4.72155,3.0456 -12.27749,12.0204 -12.27149,14.5742 0.002,1.0731 0.66578,0.5992 1.87695,-1.3398 2.89673,-4.6375 16.81332,-16.5 19.35743,-16.5 1.24589,0 6.99515,-4.1005 6.47656,-4.6191 -0.0312,-0.031 -0.0963,-0.042 -0.19336,-0.033 z m -94.86524,95.0859 c -0.36035,0.06 -0.96875,0.4364 -1.65625,1.0586 -1.1,0.9955 -2,2.2605 -2,2.8105 0,0.55 0.9,0.185 2,-0.8105 1.1,-0.9955 2,-2.2608 2,-2.8106 0,-0.2064 -0.12753,-0.284 -0.34375,-0.248 z m -19.53906,11.5586 c -0.55,0 -1.27727,0.45 -1.61719,1 -0.33992,0.55 -0.16914,1 0.38086,1 0.55,0 1.27922,-0.45 1.61914,-1 0.33992,-0.55 0.16719,-1 -0.38281,-1 z m -11.73242,6.0234 c -1.16333,-0.012 -3.25978,0.8785 -4.6582,1.9785 -1.39842,1.1 -2.97293,2 -3.49805,2 -0.52513,0 -2.65226,1.35 -4.72852,3 -2.07626,1.65 -3.43359,3 -3.01562,3 0.41797,0 0.20031,0.675 -0.48438,1.5 -2.17327,2.6186 0.54669,1.6134 3.07618,-1.1367 1.33337,-1.4497 4.22382,-3.4694 6.42382,-4.4883 2.2,-1.019 5.125,-2.7477 6.5,-3.8418 2.39649,-1.9069 2.41233,-1.9907 0.38477,-2.0117 z m -35.76563,24.9746 c 1.8898,0 1.74734,0.5217 -0.87109,3.1973 -4.70442,4.8071 -6.74805,6.2142 -6.74805,4.6465 0,-1.8739 5.79937,-7.8438 7.61914,-7.8438 z m 245.09376,0.8106 c -7.09925,0.013 -8.52218,0.3793 -16.13086,4.1484 -10.63861,5.2701 -18.69792,12.5861 -26.13868,23.7246 -3.23934,4.8492 -7.81418,11.2914 -10.16601,14.3164 -5.31852,6.8409 -5.40579,8.4542 -0.52735,9.7578 3.73368,0.9977 40.61146,11.6878 57.75,16.7403 32.66184,9.6289 48.88961,14.0655 62.4375,17.0683 10.81343,2.3966 16.51945,4.1723 19.05274,5.9278 2.31654,1.6054 5.03476,2.5208 7.5625,2.5488 5.82685,0.065 11.2721,2.3589 14.2832,6.0156 1.46475,1.7788 4.11103,3.8433 5.88086,4.5879 4.25584,1.7905 19.09659,1.7213 26.92578,-0.125 3.37837,-0.7967 12.20748,-1.9705 19.6211,-2.6094 11.49911,-0.991 15.22418,-0.9212 25.35742,0.4746 6.53302,0.9004 15.7039,2.7233 20.3789,4.0528 4.675,1.3293 10.525,2.4037 13,2.3887 l 4.5,-0.025 -4.5,-1.4414 c -27.76823,-8.9015 -47.73805,-10.217 -81,-5.334 -18.11223,2.6589 -21.88585,2.1548 -27.74414,-3.7031 -4.09134,-4.0915 -8.8187,-6.3243 -13.39453,-6.3243 -1.7617,0 -5.93974,-1.3125 -9.2832,-2.9179 -3.34347,-1.6055 -11.70313,-4.1247 -18.57813,-5.5957 -14.76158,-3.1584 -25.17452,-6.0159 -74.5,-20.459 -20.35,-5.9588 -39.60319,-11.5718 -42.78515,-12.4707 -6.44429,-1.8204 -6.43434,-1.3145 -0.20703,-9.5567 2.2855,-3.025 6.43758,-8.9021 9.22656,-13.0605 6.58962,-9.8254 14.49867,-16.9585 24.01562,-21.6582 7.12957,-3.5208 8.24818,-3.7743 16.20313,-3.6953 7.93862,0.078 10.42934,0.7024 35.04687,8.8047 14.575,4.797 33.475,10.7457 42,13.2168 16.39328,4.7519 29.17057,9.4502 48,17.6582 17.81988,7.768 30.42991,10.0637 55.5,10.0957 20.46713,0.026 35.49112,-1.3382 60.40235,-5.4766 6.82183,-1.1332 13.5237,-1.8436 14.89258,-1.582 3.30938,0.6327 14.71076,-0.8266 25.20507,-3.2246 8.93956,-2.0427 30.44645,-3.5442 67.5,-4.7129 19.85096,-0.6262 21.21824,-0.5527 25.00002,1.3672 10.9528,5.5614 28.1923,11.4252 35,11.9042 3.85,0.2712 10.4883,1.3872 14.7519,2.4786 7.0801,1.8124 9.9696,1.934 33.3243,1.416 18.0025,-0.3992 26.5225,-0.9648 28.7851,-1.9102 3.1152,-1.3016 3.3288,-1.2249 6.9746,2.4649 5.1097,5.1714 12.4284,7.7257 24.3926,8.5136 9.505,0.626 9.8801,0.7438 13.7715,4.334 2.2,2.0297 7.3514,6.3424 11.4472,9.5821 4.0961,3.2398 10.9399,9.0615 15.209,12.9375 8.6604,7.863 27.3371,18.8995 31.0801,18.3671 1.6725,-0.238 -0.7733,-1.9851 -9.4707,-6.7675 -8.5956,-4.7265 -14.6014,-9.0027 -22.4961,-16.0176 -5.9233,-5.2632 -11.8945,-10.3054 -13.2695,-11.207 -1.375,-0.9015 -5.4822,-4.3161 -9.127,-7.584 l -6.6269,-5.9414 -9.1231,-0.1621 c -11.3041,-0.205 -18.7136,-2.7308 -24.2382,-8.2559 -4.0191,-4.0187 -6.58,-4.7907 -8.7364,-2.6348 -0.8765,0.8764 -5.7926,1.2925 -16.4492,1.3946 -8.3598,0.08 -19.0242,0.4589 -23.6992,0.8418 -6.4568,0.5289 -10.3028,0.2847 -16,-1.0157 -4.125,-0.9416 -11.325,-2.0871 -16,-2.5468 -4.675,-0.4597 -9.85,-1.248 -11.5,-1.7539 -5.2582,-1.612 -21.767,-8.2703 -26.6836,-10.7618 l -4.7461,-2.4062 -24.78516,1.0058 c -30.85541,1.2521 -59.26125,2.8581 -60.13867,3.4004 -2.13208,1.3177 -18.35775,3.9094 -28.64649,4.5743 -11.29837,0.7301 -27.42279,2.7652 -41,5.1757 -3.3,0.5859 -16.125,1.2827 -28.5,1.5489 -21.33547,0.4591 -23.21849,0.3472 -36.38476,-2.1836 -8.05983,-1.5492 -16.45036,-3.8456 -20,-5.4707 -20.74449,-9.4975 -33.15779,-13.9925 -67.61524,-24.4903 -11.825,-3.6026 -29.375,-9.0741 -39,-12.1582 -15.1269,-4.8469 -18.55697,-5.6057 -25.2871,-5.5937 z m -261.2129,11.8574 -3.75,2.7852 c -2.0625,1.5315 -3.75,2.9563 -3.75,3.166 0,1.1995 1.99739,-0.02 4.5625,-2.7852 z m -10.27539,1.332 c -1.66721,0 -2.10807,1.2092 -0.91406,2.502 0.65444,0.7104 1.61772,1.0269 2.14063,0.709 0.54207,-0.3297 0.43034,-0.7511 -0.25782,-0.9805 -0.66383,-0.2213 -0.95151,-0.8134 -0.64062,-1.3164 0.31088,-0.503 0.16267,-0.9141 -0.32813,-0.9141 z m -15.72461,12.8184 -0.21875,0.1348 c 0.0182,0.01 0.0449,0.014 0.0625,0.016 l -1.52929,1.4433 c 0.50542,0.055 1.01025,0.1092 1.50781,0.1758 0.52192,-0.8886 0.52679,-1.4306 0.0254,-1.6211 z m -0.21875,0.1348 c -0.13059,-0.04 -0.29109,-0.06 -0.48046,-0.059 -0.82306,0.01 -2.26445,0.4526 -4.17969,1.2539 0.812,0.046 1.61491,0.1061 2.4082,0.1816 z m 517.52735,3.0625 c -1.85764,0.012 -2.01537,0.2044 -0.8086,0.9843 1.86074,1.2025 1.75681,1.2025 2.5,0 0.34463,-0.5576 -0.40383,-0.9943 -1.6914,-0.9843 z m -14.92969,10.1113 c -0.54375,-0.01 -1.12484,0.053 -1.61133,0.1797 -0.97297,0.2536 -0.41758,0.478 1.23242,0.498 1.65,0.02 2.44461,-0.187 1.76758,-0.4609 -0.33851,-0.1369 -0.84492,-0.21 -1.38867,-0.2168 z m -754.080078,45.873 c -0.725159,0 -1.898008,0.9257 -2.605468,2.0586 -1.18133,1.8916 -1.122602,1.9742 0.705078,0.9961 2.55218,-1.3659 3.602445,-3.0547 1.90039,-3.0547 z" />
</svg>
